<svg width="270" height="47" viewBox="0 0 270 47" fill="none" xmlns="http://www.w3.org/2000/svg">
<path d="M44.41 15.1V29.65C40.6836 29.7538 37.1468 31.3158 34.56 34C31.9514 36.7173 30.4871 40.3333 30.47 44.1V44.84H15.94V44.1C15.978 36.456 18.9866 29.1263 24.33 23.66C26.9482 20.9787 30.0693 18.8399 33.5148 17.366C36.9604 15.892 40.6627 15.1118 44.41 15.07V15.1Z" fill="#30C5FF"/>
<path d="M44.41 35V35.82C44.4112 37.0103 44.1908 38.1904 43.76 39.3C43.3381 40.4123 42.7028 41.4314 41.89 42.3C41.0995 43.1468 40.1475 43.8269 39.09 44.3C38.0535 44.757 36.9328 44.992 35.8 44.99C35.7419 43.7416 35.9182 42.4934 36.32 41.31C36.7005 40.0945 37.323 38.9686 38.15 38C38.9418 37.087 39.9116 36.3452 41 35.82C42.0673 35.2959 43.232 34.9996 44.42 34.95L44.41 35Z" fill="#F89A44"/>
<path d="M44.41 0V7.91C39.6647 7.9189 34.9698 8.88229 30.6044 10.7428C26.2391 12.6034 22.2927 15.323 19 18.74C12.2292 25.7508 8.45576 35.1235 8.47999 44.87H0.839993C0.830632 38.9872 1.95444 33.1577 4.14999 27.7C6.32225 22.2802 9.52852 17.3349 13.59 13.14C17.6107 8.99014 22.4175 5.68249 27.73 3.41C33.004 1.16284 38.6772 0.00302337 44.41 0Z" fill="#1B97FF"/>
<path d="M72.81 40.63C70.07 37.74 68.71 33.75 68.71 28.63C68.71 23.51 70.07 19.51 72.78 16.63C74.115 15.2048 75.7384 14.0806 77.5421 13.3322C79.3457 12.5839 81.2882 12.2286 83.24 12.29C86.3933 12.1503 89.5136 12.9809 92.18 14.67C93.3053 15.4414 94.2641 16.4311 94.9993 17.5804C95.7346 18.7296 96.2313 20.015 96.46 21.36C96.52 21.73 96.37 21.91 96 21.91H93.18C93.0554 21.9095 92.935 21.8651 92.8399 21.7846C92.7449 21.7041 92.6811 21.5928 92.66 21.47C91.4133 17.47 88.2733 15.4533 83.24 15.42C81.819 15.3896 80.4088 15.6721 79.1092 16.2476C77.8096 16.8231 76.6525 17.6774 75.72 18.75C73.72 20.97 72.72 24.26 72.72 28.62C72.72 32.98 73.72 36.26 75.72 38.49C76.6879 39.5722 77.8799 40.4307 79.213 41.0057C80.5462 41.5808 81.9886 41.8587 83.44 41.82C88.4533 41.82 91.5867 39.82 92.84 35.82C92.8623 35.696 92.9257 35.5832 93.0201 35.4997C93.1145 35.4162 93.2342 35.367 93.36 35.36H96.18C96.49 35.36 96.64 35.49 96.64 35.75C96.6175 37.1203 96.1664 38.4492 95.35 39.55C92.89 43.1833 88.9333 45 83.48 45C81.4932 45.071 79.514 44.7179 77.6742 43.9644C75.8344 43.2109 74.1763 42.0743 72.81 40.63Z" fill="#1B97FF" stroke="#1B97FF" stroke-width="2" stroke-miterlimit="10"/>
<path d="M113.28 45C111.722 45.0653 110.168 44.8066 108.715 44.2403C107.262 43.674 105.943 42.8124 104.84 41.71C102.713 39.51 101.647 36.3767 101.64 32.31C101.633 28.2433 102.7 25.1267 104.84 22.96C107.151 20.8681 110.158 19.7096 113.275 19.7096C116.392 19.7096 119.399 20.8681 121.71 22.96C123.85 25.12 124.92 28.2367 124.92 32.31C124.92 36.3833 123.85 39.5167 121.71 41.71C120.61 42.8131 119.292 43.6753 117.841 44.2417C116.39 44.8081 114.836 45.0663 113.28 45ZM113.28 22.84C112.243 22.8021 111.211 22.9951 110.258 23.4049C109.305 23.8148 108.455 24.4314 107.77 25.21C106.37 26.79 105.66 29.15 105.66 32.3C105.66 35.45 106.37 37.82 107.77 39.43C108.47 40.19 109.321 40.7965 110.267 41.2114C111.214 41.6263 112.236 41.8404 113.27 41.8404C114.304 41.8404 115.326 41.6263 116.272 41.2114C117.219 40.7965 118.07 40.19 118.77 39.43C120.17 37.82 120.87 35.43 120.87 32.3C120.87 29.17 120.17 26.79 118.77 25.21C118.091 24.4268 117.246 23.8043 116.296 23.3875C115.347 22.9707 114.316 22.77 113.28 22.8V22.84Z" fill="#1B97FF" stroke="#1B97FF" stroke-width="2" stroke-miterlimit="10"/>
<path d="M132.08 43.84V20.79C132.08 20.48 132.23 20.33 132.52 20.33H135C135.063 20.3242 135.126 20.3319 135.186 20.3527C135.245 20.3735 135.299 20.4068 135.345 20.4504C135.391 20.4941 135.426 20.547 135.449 20.6055C135.473 20.6641 135.483 20.727 135.48 20.79L135.9 23.23C136.237 22.8188 136.616 22.4435 137.03 22.11C137.556 21.6479 138.129 21.2423 138.74 20.9C140.268 20.053 141.994 19.6284 143.74 19.67C145.128 19.5961 146.516 19.8194 147.812 20.3249C149.107 20.8304 150.279 21.6066 151.25 22.6014C152.221 23.5962 152.969 24.7869 153.443 26.0938C153.917 27.4008 154.107 28.7938 154 30.18V43.84C154.01 43.8992 154.006 43.9599 153.988 44.0172C153.97 44.0745 153.939 44.1267 153.897 44.1697C153.855 44.2126 153.804 44.245 153.747 44.2641C153.69 44.2833 153.629 44.2887 153.57 44.28H150.42C150.36 44.2883 150.299 44.2826 150.242 44.2635C150.185 44.2443 150.133 44.2121 150.091 44.1695C150.048 44.1268 150.016 44.0749 149.997 44.0177C149.977 43.9606 149.972 43.8997 149.98 43.84V30.18C150.11 28.1904 149.453 26.2295 148.15 24.72C147.552 24.0905 146.828 23.5942 146.025 23.2634C145.222 22.9325 144.358 22.7747 143.49 22.8C142.62 22.8 141.758 22.9663 140.95 23.29C140.198 23.5665 139.493 23.9578 138.86 24.45C138.338 24.8674 137.847 25.3219 137.39 25.81C136.53 26.73 136.11 27.29 136.11 27.5V43.84C136.118 43.8997 136.113 43.9606 136.093 44.0177C136.074 44.0749 136.042 44.1268 135.999 44.1695C135.957 44.2121 135.905 44.2443 135.848 44.2635C135.791 44.2826 135.73 44.2883 135.67 44.28H132.52C132.46 44.2883 132.399 44.2826 132.342 44.2635C132.285 44.2443 132.233 44.2121 132.191 44.1695C132.148 44.1268 132.116 44.0749 132.097 44.0177C132.077 43.9606 132.072 43.8997 132.08 43.84Z" fill="#1B97FF" stroke="#1B97FF" stroke-width="2" stroke-miterlimit="10"/>
<path d="M172 45C170.498 45.0441 169.004 44.7722 167.613 44.202C166.223 43.6318 164.968 42.776 163.93 41.69C161.79 39.4833 160.72 36.3433 160.72 32.27C160.72 28.1967 161.79 25.08 163.93 22.92C165.025 21.8302 166.335 20.9789 167.775 20.4195C169.216 19.8602 170.756 19.605 172.3 19.67C173.857 19.6141 175.409 19.8792 176.859 20.4486C178.309 21.018 179.627 21.8797 180.73 22.98C181.836 24.1494 182.696 25.5293 183.257 27.0377C183.819 28.546 184.072 30.152 184 31.76V32.87C184.017 32.9921 184.005 33.1163 183.965 33.233C183.926 33.3498 183.86 33.4558 183.773 33.5429C183.686 33.63 183.58 33.6958 183.463 33.7352C183.346 33.7746 183.222 33.7865 183.1 33.77H164.8C164.858 36.0133 165.708 38.1636 167.2 39.84C167.879 40.5066 168.687 41.0277 169.574 41.3716C170.461 41.7154 171.409 41.8748 172.36 41.84C173.813 41.9298 175.261 41.6006 176.532 40.8915C177.803 40.1824 178.843 39.1233 179.53 37.84C179.7 37.55 179.89 37.4 180.07 37.4H182.89C183.27 37.4 183.42 37.58 183.33 37.93C182.767 40.0354 181.464 41.8674 179.66 43.09C177.359 44.4884 174.688 45.1545 172 45ZM164.79 30.62H180C179.961 28.4893 179.097 26.4567 177.59 24.95C176.905 24.2562 176.087 23.708 175.185 23.3386C174.282 22.9691 173.315 22.7859 172.34 22.8C171.397 22.772 170.459 22.9347 169.581 23.2784C168.703 23.6221 167.903 24.1396 167.23 24.8C165.75 26.3869 164.888 28.4518 164.8 30.62H164.79Z" fill="#1B97FF" stroke="#1B97FF" stroke-width="2" stroke-miterlimit="10"/>
<path d="M200.67 45C199.165 45.0453 197.668 44.776 196.273 44.2095C194.878 43.643 193.617 42.7917 192.57 41.71C190.45 39.51 189.387 36.3767 189.38 32.31C189.373 28.2433 190.443 25.1267 192.59 22.96C193.628 21.8966 194.874 21.0591 196.251 20.4998C197.627 19.9406 199.105 19.6717 200.59 19.71C203.81 19.71 206.33 20.3767 208.15 21.71C209.979 23.0541 211.252 25.0213 211.73 27.24C211.82 27.6 211.67 27.78 211.27 27.76H208.45C208.25 27.76 208.08 27.62 207.93 27.33C207.381 25.9434 206.409 24.7647 205.153 23.9607C203.896 23.1568 202.419 22.7682 200.93 22.85C199.893 22.8121 198.861 23.0051 197.908 23.4149C196.955 23.8248 196.105 24.4414 195.42 25.22C194.02 26.8 193.33 29.16 193.33 32.31C193.33 35.46 194.03 37.83 195.43 39.44C196.057 40.2035 196.846 40.8171 197.741 41.2359C198.635 41.6546 199.612 41.8679 200.6 41.86C202.256 41.9582 203.904 41.5688 205.34 40.74C206.55 39.9017 207.505 38.746 208.1 37.4C208.142 37.2827 208.214 37.1785 208.308 37.0977C208.403 37.017 208.518 36.9626 208.64 36.94H211.46C211.78 36.94 211.94 37.06 211.92 37.29C211.929 37.3563 211.929 37.4237 211.92 37.49C211.448 39.7296 210.153 41.7104 208.29 43.04C206.011 44.4587 203.351 45.1429 200.67 45Z" fill="#1B97FF" stroke="#1B97FF" stroke-width="2" stroke-miterlimit="10"/>
<path d="M219.19 35.1V13.4C219.19 13.09 219.34 12.94 219.63 12.94H222.78C223.07 12.94 223.21 13.09 223.21 13.4V20.33H232.35C232.64 20.33 232.79 20.48 232.79 20.79V23C232.8 23.0605 232.796 23.1225 232.777 23.181C232.759 23.2394 232.727 23.2928 232.684 23.3366C232.641 23.3804 232.589 23.4135 232.531 23.4332C232.473 23.4529 232.411 23.4587 232.35 23.45H223.21V35.1C223.086 36.8999 223.635 38.6817 224.75 40.1C225.301 40.6719 225.968 41.1188 226.706 41.4104C227.445 41.702 228.237 41.8314 229.03 41.79C230.49 41.8118 231.944 41.5887 233.33 41.13L233.97 40.89C234.26 40.78 234.4 40.89 234.4 41.26V43.45C234.394 43.5797 234.35 43.7049 234.274 43.8099C234.198 43.9148 234.092 43.9949 233.97 44.04C232.25 44.6776 230.424 44.9831 228.59 44.94C227.322 44.997 226.056 44.785 224.875 44.3179C223.694 43.8509 222.626 43.1393 221.74 42.23C219.988 40.2795 219.072 37.7191 219.19 35.1Z" fill="#1B97FF" stroke="#1B97FF" stroke-width="2" stroke-miterlimit="10"/>
<path d="M239.77 13C239.753 12.8792 239.765 12.7563 239.804 12.6407C239.843 12.5252 239.908 12.4203 239.994 12.3341C240.08 12.2479 240.185 12.1828 240.301 12.1439C240.416 12.1051 240.539 12.0934 240.66 12.11H243.57C243.695 12.0959 243.821 12.1073 243.941 12.1434C244.062 12.1794 244.174 12.2395 244.27 12.32C244.417 12.5147 244.489 12.7565 244.47 13V15.91C244.499 16.034 244.495 16.1634 244.46 16.2858C244.425 16.4082 244.36 16.5197 244.27 16.6097C244.18 16.6997 244.068 16.7654 243.946 16.8004C243.823 16.8355 243.694 16.8388 243.57 16.81H240.66C240.417 16.8286 240.175 16.7575 239.98 16.61C239.9 16.5136 239.839 16.4018 239.803 16.2815C239.767 16.1612 239.756 16.0348 239.77 15.91V13ZM240.11 43.88V20.79C240.11 20.48 240.25 20.33 240.54 20.33H243.67C243.732 20.3218 243.796 20.328 243.855 20.3483C243.915 20.3685 243.969 20.4021 244.013 20.4466C244.058 20.491 244.092 20.5452 244.112 20.6047C244.132 20.6643 244.138 20.7276 244.13 20.79V43.84C244.137 43.9012 244.13 43.9632 244.109 44.0211C244.088 44.0791 244.054 44.1314 244.009 44.174C243.965 44.2166 243.911 44.2483 243.852 44.2667C243.793 44.2851 243.731 44.2896 243.67 44.28H240.54C240.481 44.2888 240.42 44.2833 240.363 44.2641C240.306 44.245 240.255 44.2126 240.213 44.1697C240.171 44.1267 240.14 44.0745 240.122 44.0172C240.104 43.9599 240.1 43.8992 240.11 43.84V43.88Z" fill="#1B97FF" stroke="#1B97FF" stroke-width="2" stroke-miterlimit="10"/>
<path d="M253 43.84V20.79C253 20.48 253.15 20.33 253.44 20.33H255.91C255.973 20.3242 256.036 20.3319 256.096 20.3527C256.155 20.3735 256.209 20.4068 256.255 20.4505C256.3 20.4941 256.336 20.547 256.359 20.6056C256.383 20.6641 256.393 20.727 256.39 20.79L256.8 24.59L257.15 24.09C257.495 23.6866 257.866 23.3059 258.26 22.95C258.837 22.3935 259.482 21.913 260.18 21.52C261.071 21.0477 262.009 20.6722 262.98 20.4C264.169 20.0566 265.402 19.8849 266.64 19.89H268.43C268.74 19.89 268.89 20.04 268.89 20.33V23C268.899 23.062 268.893 23.1252 268.872 23.1844C268.852 23.2436 268.818 23.2973 268.774 23.3411C268.729 23.3848 268.674 23.4175 268.615 23.4364C268.555 23.4553 268.492 23.46 268.43 23.45H267.1C265.746 23.4395 264.399 23.6282 263.1 24.01C262.055 24.2945 261.065 24.7508 260.17 25.36C259.016 26.1004 258.036 27.0831 257.3 28.24L257.04 28.81V43.81C257.048 43.8697 257.043 43.9306 257.023 43.9877C257.004 44.0449 256.972 44.0969 256.929 44.1395C256.887 44.1821 256.835 44.2143 256.778 44.2335C256.721 44.2527 256.66 44.2583 256.6 44.25H253.46C253.402 44.2608 253.341 44.2581 253.284 44.2421C253.227 44.2261 253.174 44.1972 253.13 44.1576C253.085 44.1181 253.05 44.0689 253.028 44.0138C253.006 43.9588 252.996 43.8993 253 43.84Z" fill="#1B97FF" stroke="#1B97FF" stroke-width="2" stroke-miterlimit="10"/>
</svg>
