<svg width="61" height="61" viewBox="0 0 61 61" fill="none" xmlns="http://www.w3.org/2000/svg">
    <g clip-path="url(#clip0)">
        <path
            d="M30.0655 29.3839C34.1023 29.3839 37.5979 27.936 40.454 25.0795C43.3101 22.2234 44.758 18.7287 44.758 14.6915C44.758 10.6556 43.3101 7.16051 40.4535 4.30347C37.597 1.44783 34.1019 0 30.0655 0C26.0282 0 22.5336 1.44783 19.6775 4.30394C16.8214 7.16004 15.373 10.6551 15.373 14.6915C15.373 18.7287 16.8214 22.2238 19.6779 25.0799C22.5345 27.9356 26.0296 29.3839 30.0655 29.3839Z"
            fill="#D0D0D0" />
        <path
            d="M55.7732 46.9059C55.6908 45.7172 55.5242 44.4207 55.2789 43.0515C55.0313 41.6721 54.7125 40.368 54.3309 39.1762C53.9367 37.9443 53.4006 36.7277 52.7379 35.5619C52.05 34.3519 51.2421 33.2983 50.3355 32.4313C49.3875 31.5242 48.2268 30.7949 46.8846 30.263C45.5471 29.7338 44.0648 29.4658 42.4792 29.4658C41.8565 29.4658 41.2543 29.7213 40.0913 30.4785C39.3755 30.9453 38.5383 31.4851 37.6038 32.0822C36.8047 32.5913 35.7222 33.0684 34.3851 33.5003C33.0806 33.9224 31.7561 34.1364 30.4488 34.1364C29.1415 34.1364 27.8175 33.9224 26.5116 33.5003C25.1759 33.0688 24.0934 32.5918 23.2952 32.0827C22.3696 31.4912 21.5319 30.9513 20.8054 30.478C19.6438 29.7208 19.0411 29.4653 18.4184 29.4653C16.8323 29.4653 15.3505 29.7338 14.0135 30.2635C12.6722 30.7945 11.511 31.5237 10.5621 32.4317C9.65598 33.2992 8.84759 34.3524 8.16067 35.5619C7.49841 36.7277 6.96228 37.9438 6.56763 39.1766C6.18647 40.3685 5.86768 41.6721 5.62009 43.0515C5.37482 44.4188 5.20821 45.7158 5.12584 46.9073C5.04486 48.0745 5.00391 49.2859 5.00391 50.5094C5.00391 53.6936 6.01614 56.2714 8.01221 58.1725C9.98361 60.0485 12.5921 61.0002 15.7643 61.0002H45.1361C48.3083 61.0002 50.9159 60.049 52.8877 58.1725C54.8843 56.2728 55.8965 53.6945 55.8965 50.5089C55.896 49.2798 55.8546 48.0675 55.7732 46.9059Z"
            fill="#D0D0D0" />
    </g>
    <defs>
        <clipPath id="clip0">
            <rect width="61" height="61" fill="white" />
        </clipPath>
    </defs>
</svg>