<svg width="60" height="60" viewBox="0 0 60 60" fill="none" xmlns="http://www.w3.org/2000/svg">
	<g clip-path="url(#clip0)">
		<path
			d="M2.29688 16.879L5.49417 18.7596C6.2691 18.1022 7.21966 17.6852 8.22825 17.5594L30.827 14.7832C31.4037 14.7124 31.9286 15.1222 31.9994 15.6989C32.0703 16.2761 31.6605 16.8009 31.0833 16.8718L8.48502 19.6485C8.14506 19.6927 7.81434 19.7923 7.50673 19.9438L30.9457 33.7585L59.595 16.879L30.9457 0L2.29688 16.879Z"
			fill="#D0D0D0" />
		<path
			d="M30.4116 35.8861L9.91113 23.8092V34.7583C9.91113 37.6537 12.4141 40.4684 16.7782 42.4804C21.2511 44.3985 26.0789 45.3511 30.9457 45.2756C35.812 45.3516 40.6398 44.399 45.1127 42.4804C49.4773 40.4684 51.9802 37.6537 51.9802 34.7583V23.8092L31.4803 35.8861C31.1506 36.0802 30.7413 36.0802 30.4116 35.8861Z"
			fill="#D0D0D0" />
		<path d="M6.75665 57.8964L4.6532 46.3274L0.446289 59.9999L6.75665 57.8964Z" fill="#D0D0D0" />
		<path
			d="M7.80822 43.1722C7.80617 41.839 6.96294 40.6522 5.70477 40.2106V22.7795C5.70785 22.3369 5.80439 21.8999 5.98875 21.4972C6.29174 20.8189 6.82428 20.2694 7.49291 19.9448L5.48805 18.7606C4.94319 19.2228 4.49744 19.7913 4.17904 20.4306C3.80467 21.1573 3.60696 21.962 3.60131 22.7795V40.2106C2.09253 40.7483 1.22722 42.332 1.59029 43.8922C1.95388 45.4523 3.42979 46.4912 5.02073 46.3068C6.61167 46.123 7.8113 44.7739 7.80822 43.1722Z"
			fill="#D0D0D0" />
	</g>
	<defs>
		<clipPath id="clip0">
			<rect width="60" height="60" fill="white" />
		</clipPath>
	</defs>
</svg>