<svg width="132" height="19" viewBox="0 0 132 19" fill="none" xmlns="http://www.w3.org/2000/svg">
<path d="M30.6083 17.1687C29.9379 16.4983 29.4108 15.6982 29.0591 14.8171C28.7073 13.936 28.5383 12.9924 28.5623 12.0437C28.5623 11.5927 28.5623 10.8547 28.5623 9.81946C28.5623 8.78422 28.5623 8.01547 28.5623 7.54397C28.5494 6.60901 28.7238 5.68095 29.0752 4.81473C29.4267 3.94851 29.948 3.16174 30.6083 2.50099C32.0976 1.22498 34.0231 0.5782 35.9791 0.696995C37.3221 0.664522 38.6559 0.926909 39.887 1.46574C40.9261 1.91927 41.8213 2.64957 42.4752 3.57724C43.089 4.46356 43.4271 5.51212 43.447 6.59073C43.4495 6.65768 43.4359 6.72425 43.4074 6.78487C43.3789 6.84549 43.3364 6.89841 43.2834 6.93922C43.1805 7.02639 43.0498 7.07367 42.9151 7.07247H40.4906C40.3289 7.08844 40.1674 7.04064 40.0404 6.93922C39.9117 6.80189 39.8232 6.63166 39.7847 6.44723C39.6328 5.57372 39.167 4.78614 38.4752 4.23323C37.7346 3.77112 36.8711 3.54589 35.9996 3.58748C33.5989 3.58748 32.344 4.95415 32.2349 7.68747C32.2349 8.13847 32.2349 8.83547 32.2349 9.73746C32.2349 10.6395 32.2349 11.398 32.2349 11.89C32.3372 14.5823 33.5921 15.9319 35.9996 15.9387C36.8645 15.9794 37.7212 15.754 38.4548 15.2929C39.1594 14.7481 39.6341 13.9579 39.7847 13.079C39.8232 12.8945 39.9117 12.7243 40.0404 12.587C40.1659 12.4819 40.3275 12.4303 40.4906 12.4435H42.9355C43.0073 12.4415 43.0788 12.4541 43.1456 12.4805C43.2124 12.5069 43.2732 12.5466 43.3243 12.5972C43.3789 12.6426 43.4208 12.7014 43.446 12.7678C43.4711 12.8343 43.4785 12.9062 43.4675 12.9765C43.4474 14.0519 43.1092 15.0971 42.4956 15.9797C41.8441 16.9095 40.9483 17.6404 39.9074 18.0912C38.6783 18.6371 37.3436 18.9031 35.9996 18.8702C34.0512 19.0164 32.1213 18.4073 30.6083 17.1687Z" fill="#1B97FF"/>
<path d="M47.4368 17.4352C46.8817 16.8859 46.4411 16.2315 46.1408 15.51C45.8404 14.7886 45.6864 14.0144 45.6875 13.2327V12.1257V11.0085C45.6885 10.2301 45.8436 9.45968 46.1439 8.74182C46.4442 8.02396 46.8837 7.37294 47.4368 6.82647C48.7082 5.74676 50.346 5.19975 52.0097 5.29922C53.6606 5.20191 55.2849 5.7493 56.5416 6.82647C57.1003 7.36984 57.5448 8.01982 57.8487 8.73807C58.1527 9.45633 58.31 10.2283 58.3114 11.0085C58.3114 11.2135 58.3114 11.5824 58.3114 12.1257C58.3114 12.6689 58.3114 13.0379 58.3114 13.2327C58.3144 14.0138 58.1622 14.7876 57.8637 15.5092C57.5651 16.2307 57.1261 16.8854 56.5723 17.4352C55.3036 18.5115 53.6689 19.055 52.0097 18.9522C50.3474 19.0545 48.7097 18.5112 47.4368 17.4352ZM54.0864 15.5594C54.6082 14.8517 54.8784 13.9892 54.8536 13.1097C54.8536 12.9354 54.8536 12.6074 54.8536 12.0847C54.8536 11.5619 54.8536 11.2647 54.8536 11.0597C54.8821 10.1701 54.6039 9.29777 54.0659 8.58946C53.8108 8.30246 53.4943 8.07689 53.14 7.92958C52.7858 7.78227 52.4029 7.71702 52.0199 7.73871C51.6374 7.72069 51.2556 7.78761 50.9019 7.93469C50.5482 8.08176 50.2313 8.30535 49.9739 8.58946C49.4396 9.29913 49.1651 10.1713 49.1964 11.0597V12.0847V13.1097C49.1648 13.9918 49.4395 14.8576 49.9739 15.5594C50.2341 15.8387 50.5519 16.0577 50.9053 16.2011C51.2587 16.3445 51.6391 16.4089 52.0199 16.3897C52.3993 16.4102 52.7786 16.3464 53.1305 16.2028C53.4825 16.0593 53.7984 15.8396 54.0557 15.5594H54.0864Z" fill="#1B97FF"/>
<path d="M61.3089 18.5217C61.2507 18.4661 61.2043 18.3994 61.1727 18.3254C61.141 18.2514 61.1247 18.1717 61.1247 18.0912V6.16021C61.1206 6.07763 61.135 5.99518 61.1669 5.91891C61.1987 5.84263 61.2473 5.77449 61.3089 5.71947C61.3671 5.65992 61.4374 5.61356 61.5151 5.5835C61.5927 5.55344 61.6759 5.54039 61.759 5.54522H63.805C63.8865 5.54121 63.9679 5.55468 64.0437 5.58473C64.1196 5.61478 64.1882 5.66072 64.2449 5.71947C64.3017 5.77719 64.3456 5.84631 64.3738 5.92227C64.4021 5.99824 64.4139 6.07933 64.4086 6.16021V7.18521C64.9133 6.55998 65.5579 6.06254 66.2901 5.73312C67.0223 5.4037 67.8216 5.25155 68.6233 5.28897C69.3106 5.25672 69.9965 5.37585 70.6328 5.63794C71.2691 5.90004 71.8403 6.29874 72.3062 6.80596C73.2705 7.9738 73.7567 9.46468 73.6668 10.9777V18.0809C73.6699 18.2403 73.6113 18.3946 73.5031 18.5114C73.4464 18.5702 73.3778 18.6161 73.3019 18.6462C73.2261 18.6762 73.1447 18.6897 73.0632 18.6857H70.8126C70.7329 18.6871 70.6538 18.6724 70.58 18.6425C70.5061 18.6126 70.439 18.5681 70.3827 18.5116C70.3264 18.4552 70.282 18.388 70.2521 18.314C70.2223 18.24 70.2076 18.1607 70.209 18.0809V11.1417C70.2601 10.3142 70.0052 9.49681 69.4929 8.8457C69.2322 8.56773 68.914 8.35028 68.5606 8.20862C68.2071 8.06696 67.827 8.00453 67.4469 8.02571C67.0658 8.01191 66.6862 8.07975 66.3333 8.22469C65.9805 8.36963 65.6626 8.58834 65.4009 8.86621C64.8514 9.49231 64.5686 10.3092 64.6132 11.1417V18.0912C64.6163 18.2505 64.5576 18.4048 64.4495 18.5217C64.392 18.5794 64.3233 18.6246 64.2476 18.6546C64.1719 18.6846 64.0909 18.6987 64.0096 18.6959H61.759C61.6759 18.7007 61.5927 18.6877 61.5151 18.6576C61.4374 18.6276 61.3671 18.5812 61.3089 18.5217Z" fill="#1B97FF"/>
<path d="M78.1271 17.3327C76.9574 16.0914 76.3249 14.4371 76.3676 12.7305V12.095C76.2691 10.2857 76.8575 8.50602 78.0146 7.11348C79.2667 5.95074 80.9109 5.30472 82.6181 5.30472C84.3253 5.30472 85.9695 5.95074 87.2217 7.11348C88.3545 8.47031 88.9353 10.2051 88.8482 11.972V12.505C88.8482 12.5855 88.8319 12.6651 88.8003 12.7391C88.7686 12.8131 88.7223 12.8799 88.6641 12.9355C88.6047 12.9935 88.5342 13.0388 88.4568 13.0688C88.3795 13.0987 88.2969 13.1126 88.214 13.1097H79.7946V13.3147C79.7923 14.1688 80.061 15.0016 80.5619 15.6927C80.7952 15.9941 81.0971 16.2351 81.4423 16.3956C81.7876 16.5561 82.1662 16.6314 82.5465 16.6152C83.0021 16.6243 83.4532 16.5228 83.8611 16.3193C84.2691 16.1158 84.6218 15.8164 84.8892 15.4467C84.9877 15.3137 85.1089 15.1992 85.2473 15.1085C85.3844 15.0574 85.531 15.0364 85.6769 15.047H87.8968C88.0364 15.044 88.173 15.0872 88.2856 15.17C88.3401 15.2118 88.3835 15.2663 88.412 15.3289C88.4406 15.3914 88.4534 15.46 88.4493 15.5287C88.3856 16.0733 88.132 16.5779 87.7332 16.9534C87.1614 17.5703 86.4635 18.0562 85.6872 18.3782C84.72 18.8014 83.6733 19.0112 82.6181 18.9932C81.7967 19.0319 80.9759 18.9049 80.2044 18.6197C79.4329 18.3344 78.7265 17.8968 78.1271 17.3327ZM85.2882 10.9572V10.906C85.3389 10.0517 85.0891 9.20661 84.5823 8.51773C84.3321 8.22208 84.0176 7.98794 83.6629 7.83333C83.3081 7.67872 82.9227 7.60778 82.5363 7.62598C82.1492 7.60215 81.762 7.67053 81.4063 7.82554C81.0507 7.98054 80.7368 8.21774 80.4903 8.51773C79.9726 9.2025 79.7118 10.0479 79.7537 10.906V10.9572H85.2882Z" fill="#1B97FF"/>
<path d="M92.7255 17.4044C92.1582 16.8493 91.7104 16.1837 91.4096 15.4486C91.1087 14.7135 90.9612 13.9245 90.9761 13.1302V12.1052V11.0802C90.9624 10.286 91.1105 9.49741 91.4113 8.7625C91.712 8.0276 92.1592 7.36187 92.7255 6.80598C93.9476 5.73805 95.5355 5.18688 97.1551 5.26848C98.3172 5.23169 99.4713 5.4742 100.521 5.97573C101.343 6.36328 102.048 6.9607 102.567 7.70797C102.979 8.28322 103.226 8.96006 103.283 9.66572C103.295 9.74551 103.286 9.82699 103.257 9.90236C103.228 9.97773 103.181 10.0445 103.119 10.0962C103 10.2081 102.843 10.2703 102.679 10.2705H100.439C100.294 10.2811 100.149 10.2413 100.03 10.1577C99.9186 10.0352 99.8318 9.89257 99.774 9.73747C99.5795 9.18371 99.223 8.7015 98.751 8.35372C98.2827 8.05078 97.7324 7.90041 97.1755 7.92323C96.7957 7.89569 96.4146 7.95418 96.0604 8.09435C95.7062 8.23453 95.3881 8.4528 95.1295 8.73297C94.5911 9.44001 94.3194 10.3149 94.3623 11.2032V12.1462V12.9765C94.4543 15.17 95.3853 16.2667 97.1346 16.2667C97.6936 16.292 98.2469 16.1454 98.7203 15.8464C99.1999 15.4976 99.5578 15.0063 99.7433 14.4422C99.7932 14.2917 99.8772 14.1549 99.9888 14.0425C100.047 13.9936 100.113 13.9567 100.185 13.9339C100.257 13.911 100.333 13.9026 100.408 13.9092H102.679C102.843 13.9093 103 13.9716 103.119 14.0835C103.181 14.1352 103.228 14.2019 103.257 14.2773C103.286 14.3527 103.295 14.4342 103.283 14.514C103.218 15.2034 102.974 15.864 102.577 16.4307C102.055 17.1795 101.35 17.7827 100.531 18.1834C99.4735 18.7068 98.3033 18.9603 97.1244 18.9214C95.518 19.0006 93.9429 18.4574 92.7255 17.4044Z" fill="#1B97FF"/>
<path d="M108.408 17.4967C107.568 16.5225 107.149 15.2544 107.242 13.9707V8.25121H105.257C105.177 8.25508 105.097 8.24151 105.023 8.21142C104.949 8.18133 104.882 8.13546 104.827 8.07696C104.767 8.02305 104.72 7.95657 104.688 7.88219C104.656 7.80781 104.641 7.72734 104.643 7.64646V6.16022C104.648 5.99874 104.715 5.84527 104.829 5.73103C104.943 5.61679 105.096 5.55035 105.257 5.54522H107.242V1.34273C107.238 1.26024 107.253 1.17801 107.285 1.10185C107.317 1.02568 107.365 0.957457 107.426 0.901984C107.483 0.846898 107.55 0.803955 107.624 0.775762C107.698 0.74757 107.777 0.734717 107.856 0.737984H109.902C109.984 0.733697 110.066 0.746005 110.143 0.774179C110.221 0.802352 110.291 0.845815 110.352 0.901984C110.461 1.02196 110.52 1.18007 110.515 1.34273V5.54522H113.666C113.827 5.54791 113.981 5.61389 114.094 5.72893C114.207 5.84398 114.27 5.99887 114.27 6.16022V7.64646C114.272 7.72632 114.257 7.80572 114.227 7.87977C114.197 7.95381 114.153 8.02093 114.096 8.07696C114.04 8.13389 113.973 8.17873 113.899 8.2087C113.825 8.23867 113.746 8.25314 113.666 8.25121H110.556V13.6939C110.518 14.2661 110.65 14.8368 110.935 15.3339C111.074 15.525 111.26 15.6764 111.476 15.7735C111.691 15.8705 111.927 15.9098 112.162 15.8874H113.932C114.095 15.8827 114.252 15.9415 114.372 16.0514C114.428 16.1095 114.472 16.1787 114.5 16.2546C114.528 16.3305 114.54 16.4114 114.536 16.4922V18.0912C114.539 18.2505 114.48 18.4048 114.372 18.5217C114.315 18.5794 114.246 18.6246 114.17 18.6546C114.095 18.6846 114.014 18.6987 113.932 18.6959H111.886C111.255 18.7463 110.621 18.6658 110.022 18.4595C109.424 18.2532 108.874 17.9254 108.408 17.4967Z" fill="#1B97FF"/>
<path d="M116.858 3.22876C116.747 3.11295 116.685 2.95881 116.684 2.79826V0.953263C116.68 0.782705 116.743 0.617256 116.858 0.492015C116.974 0.380815 117.128 0.318423 117.288 0.317766H119.61C119.693 0.314834 119.776 0.328763 119.853 0.358712C119.93 0.38866 120.001 0.434008 120.06 0.492015C120.121 0.552212 120.168 0.624198 120.2 0.703529C120.232 0.782861 120.247 0.867854 120.244 0.953263V2.79826C120.242 2.87941 120.224 2.95935 120.191 3.03331C120.157 3.10728 120.11 3.17374 120.05 3.22876C119.931 3.3406 119.773 3.40288 119.61 3.40301H117.288C117.128 3.40235 116.974 3.33996 116.858 3.22876ZM116.96 18.5217C116.904 18.4657 116.859 18.3986 116.829 18.3245C116.799 18.2505 116.785 18.1711 116.787 18.0912V6.16025C116.78 6.07839 116.793 5.9962 116.823 5.91987C116.853 5.84353 116.9 5.77502 116.96 5.7195C117.016 5.66257 117.083 5.61773 117.157 5.58776C117.231 5.55779 117.31 5.54332 117.39 5.54525H119.528C119.689 5.55038 119.843 5.61682 119.957 5.73106C120.071 5.8453 120.137 5.99877 120.142 6.16025V18.0912C120.139 18.2525 120.073 18.4063 119.959 18.5195C119.844 18.6326 119.689 18.696 119.528 18.696H117.39C117.243 18.6891 117.104 18.6268 117.001 18.5217H116.96Z" fill="#1B97FF"/>
<path d="M123.641 18.5217C123.53 18.4059 123.467 18.2517 123.467 18.0912V6.18072C123.464 6.09767 123.478 6.01489 123.508 5.93738C123.537 5.85986 123.583 5.78922 123.641 5.72972C123.696 5.67142 123.763 5.625 123.837 5.59329C123.91 5.56157 123.99 5.54522 124.07 5.54522H126.116C126.2 5.54301 126.283 5.55827 126.361 5.59003C126.438 5.6218 126.508 5.66937 126.566 5.72972C126.626 5.7881 126.672 5.85856 126.702 5.93635C126.732 6.01414 126.745 6.09746 126.74 6.18072V7.20571C127.165 6.65329 127.718 6.2126 128.35 5.92156C128.983 5.63052 129.677 5.49785 130.372 5.53497H131.395C131.476 5.53224 131.557 5.5463 131.633 5.57627C131.709 5.60625 131.777 5.6515 131.835 5.70922C131.892 5.76694 131.936 5.83606 131.964 5.91203C131.992 5.98799 132.004 6.06909 131.999 6.14997V7.99496C132.002 8.15429 131.943 8.30863 131.835 8.42546C131.777 8.48317 131.709 8.52843 131.633 8.5584C131.557 8.58838 131.476 8.60244 131.395 8.59971H129.4C129.058 8.57001 128.714 8.61565 128.391 8.73341C128.069 8.85117 127.776 9.03821 127.533 9.2814C127.29 9.52459 127.104 9.81805 126.986 10.1412C126.869 10.4643 126.823 10.8093 126.853 11.1519V18.0809C126.854 18.1607 126.84 18.24 126.81 18.314C126.78 18.388 126.735 18.4552 126.679 18.5116C126.623 18.5681 126.556 18.6126 126.482 18.6425C126.408 18.6724 126.329 18.6871 126.249 18.6857H123.999C123.865 18.6711 123.739 18.6136 123.641 18.5217Z" fill="#1B97FF"/>
<path d="M18.7928 6.37549V12.4332C17.2221 12.4757 15.7295 13.1282 14.63 14.2527C13.5305 15.3773 12.9103 16.886 12.9002 18.4602C12.9002 18.5627 12.9002 18.6652 12.9002 18.7677H6.76221V18.4602C6.78355 15.2671 8.05694 12.2103 10.3076 9.94948C12.5583 7.68866 15.6059 6.40501 18.7928 6.37549Z" fill="#30C5FF"/>
<path d="M18.7926 14.6677V15.0059C18.7926 15.4999 18.6955 15.9891 18.5068 16.4455C18.3181 16.9019 18.0416 17.3166 17.693 17.6659C17.3443 18.0152 16.9304 18.2923 16.4749 18.4813C16.0194 18.6704 15.5312 18.7677 15.0382 18.7677C15.0135 18.2509 15.0912 17.7343 15.267 17.2478C15.4427 16.7613 15.7129 16.3145 16.0621 15.9332C16.4112 15.552 16.8322 15.2439 17.3009 15.0266C17.7696 14.8094 18.2766 14.6874 18.7926 14.6677Z" fill="#F89A44"/>
<path d="M18.7926 2.79316e-06V3.32099C14.6876 3.32099 10.7507 4.95489 7.84797 7.86324C4.94526 10.7716 3.31454 14.7162 3.31454 18.8292H2.78774e-06C-0.00134195 16.3561 0.483826 13.907 1.42777 11.622C2.37171 9.33691 3.75591 7.26066 5.50123 5.51194C7.24656 3.76322 9.31877 2.37632 11.5994 1.43055C13.88 0.484768 16.3244 -0.00134456 18.7926 2.79316e-06Z" fill="#1B97FF"/>
</svg>
