<svg width="315" height="267" viewBox="0 0 315 267" fill="none" xmlns="http://www.w3.org/2000/svg">
<path d="M157.212 6.05212C158.607 6.05212 159.738 4.92117 159.738 3.52606C159.738 2.13096 158.607 1 157.212 1C155.817 1 154.686 2.13096 154.686 3.52606C154.686 4.92117 155.817 6.05212 157.212 6.05212Z" stroke="white" stroke-width="1.24" stroke-miterlimit="10" stroke-linecap="round"/>
<path d="M95.1996 45.8668C130.394 6.41486 187.916 73.8947 212.278 112.566C365.19 100.858 314.811 248.094 263.367 248.803C211.924 249.513 201.28 175.718 109.746 228.936C18.2115 282.153 -38.5539 161.172 30.9837 143.787C100.521 126.403 51.2064 95.1817 95.1996 45.8668Z" fill="#BEEAFC"/>
<path d="M266.077 94.3663V90.7404C266.077 90.5523 266.003 90.3718 265.87 90.2387C265.737 90.1056 265.556 90.0309 265.368 90.0309H264.488C264.342 90.0323 264.199 89.9828 264.086 89.8909C263.972 89.799 263.893 89.6704 263.864 89.5271C263.535 88.1063 262.974 86.7494 262.203 85.5109C262.125 85.3885 262.091 85.2431 262.106 85.0986C262.122 84.9541 262.186 84.8192 262.288 84.7162L262.906 84.0918C262.978 84.0254 263.035 83.9447 263.075 83.8549C263.114 83.7652 263.134 83.6683 263.134 83.5703C263.134 83.4723 263.114 83.3754 263.075 83.2856C263.035 83.1958 262.978 83.1152 262.906 83.0487L260.344 80.4872C260.278 80.4152 260.197 80.3577 260.107 80.3184C260.018 80.2791 259.921 80.2588 259.823 80.2588C259.725 80.2588 259.628 80.2791 259.538 80.3184C259.448 80.3577 259.368 80.4152 259.301 80.4872L258.684 81.1045C258.581 81.2082 258.446 81.2733 258.302 81.2888C258.157 81.3043 258.011 81.2693 257.889 81.1897C256.648 80.4205 255.288 79.8596 253.866 79.5293C253.724 79.4973 253.597 79.4182 253.505 79.3048C253.414 79.1915 253.363 79.0505 253.362 78.9049V78.025C253.362 77.8368 253.287 77.6563 253.154 77.5233C253.021 77.3902 252.841 77.3154 252.652 77.3154H249.027C248.838 77.3154 248.658 77.3902 248.525 77.5233C248.392 77.6563 248.317 77.8368 248.317 78.025V78.9049C248.317 79.0509 248.267 79.1924 248.175 79.3061C248.084 79.4197 247.956 79.4985 247.813 79.5293C246.391 79.8596 245.032 80.4205 243.79 81.1897C243.667 81.2668 243.522 81.3003 243.378 81.2848C243.234 81.2694 243.099 81.2059 242.995 81.1045L242.378 80.4872C242.311 80.4152 242.231 80.3577 242.141 80.3184C242.051 80.2791 241.954 80.2588 241.856 80.2588C241.758 80.2588 241.661 80.2791 241.572 80.3184C241.482 80.3577 241.401 80.4152 241.335 80.4872L238.773 83.0487C238.701 83.1152 238.644 83.1958 238.604 83.2856C238.565 83.3754 238.545 83.4723 238.545 83.5703C238.545 83.6683 238.565 83.7652 238.604 83.8549C238.644 83.9447 238.701 84.0254 238.773 84.0918L239.391 84.7091C239.493 84.8139 239.556 84.9499 239.572 85.0953C239.587 85.2407 239.553 85.3871 239.476 85.5109C238.706 86.7494 238.145 88.1063 237.815 89.5271C237.785 89.6698 237.706 89.7976 237.592 89.8893C237.479 89.981 237.337 90.0309 237.191 90.0309H236.311C236.123 90.0309 235.942 90.1056 235.809 90.2387C235.676 90.3718 235.602 90.5523 235.602 90.7404V94.3663C235.602 94.5545 235.676 94.735 235.809 94.8681C235.942 95.0011 236.123 95.0759 236.311 95.0759H237.113C237.259 95.0759 237.401 95.1258 237.514 95.2175C237.628 95.3092 237.707 95.437 237.737 95.5797C238.068 97.0024 238.629 98.3614 239.398 99.6029C239.477 99.7249 239.512 99.8707 239.497 100.015C239.481 100.16 239.416 100.295 239.313 100.398L238.695 101.015C238.623 101.081 238.566 101.162 238.526 101.252C238.487 101.342 238.467 101.439 238.467 101.537C238.467 101.635 238.487 101.731 238.526 101.821C238.566 101.911 238.623 101.992 238.695 102.058L241.257 104.62C241.323 104.692 241.404 104.749 241.494 104.788C241.583 104.828 241.68 104.848 241.778 104.848C241.876 104.848 241.973 104.828 242.063 104.788C242.153 104.749 242.233 104.692 242.3 104.62L242.917 104.002C243.022 103.9 243.158 103.837 243.303 103.821C243.449 103.806 243.595 103.839 243.719 103.917C244.959 104.684 246.315 105.245 247.735 105.578C247.877 105.607 248.005 105.684 248.097 105.797C248.188 105.909 248.239 106.05 248.239 106.195V107.082C248.239 107.27 248.314 107.45 248.447 107.584C248.58 107.717 248.76 107.791 248.949 107.791H252.574C252.763 107.791 252.943 107.717 253.076 107.584C253.209 107.45 253.284 107.27 253.284 107.082V106.195C253.286 106.05 253.336 105.91 253.428 105.798C253.519 105.686 253.646 105.608 253.788 105.578C255.207 105.245 256.564 104.684 257.804 103.917C257.928 103.839 258.074 103.806 258.22 103.821C258.365 103.837 258.501 103.9 258.606 104.002L259.223 104.62C259.289 104.692 259.37 104.749 259.46 104.788C259.55 104.828 259.647 104.848 259.745 104.848C259.843 104.848 259.94 104.828 260.029 104.788C260.119 104.749 260.2 104.692 260.266 104.62L262.828 102.058C262.9 101.992 262.957 101.911 262.996 101.821C263.036 101.731 263.056 101.635 263.056 101.537C263.056 101.439 263.036 101.342 262.996 101.252C262.957 101.162 262.9 101.081 262.828 101.015L262.21 100.398C262.107 100.295 262.042 100.16 262.026 100.015C262.011 99.8707 262.046 99.7249 262.125 99.6029C262.894 98.3614 263.455 97.0024 263.786 95.5797C263.816 95.4382 263.894 95.3113 264.006 95.2197C264.118 95.1282 264.258 95.0775 264.403 95.0759H265.29C265.389 95.0869 265.49 95.0767 265.585 95.0461C265.681 95.0154 265.768 94.9649 265.843 94.8978C265.917 94.8308 265.977 94.7488 266.017 94.6572C266.058 94.5656 266.078 94.4665 266.077 94.3663ZM249.921 100.305C248.422 100.141 247.003 99.546 245.836 98.5926C244.668 97.6391 243.801 96.3678 243.34 94.9324C242.88 93.497 242.844 91.9589 243.239 90.5039C243.634 89.0489 244.441 87.7393 245.564 86.7333C246.687 85.7274 248.077 85.0681 249.566 84.8352C251.056 84.6023 252.581 84.8057 253.957 85.4209C255.333 86.0361 256.502 87.0366 257.322 88.3017C258.142 89.5668 258.578 91.0423 258.577 92.5498C258.577 93.6464 258.345 94.7306 257.898 95.7317C257.451 96.7329 256.797 97.6285 255.98 98.3602C255.164 99.0919 254.202 99.6433 253.158 99.9785C252.114 100.314 251.011 100.425 249.921 100.305Z" fill="#61D3FF"/>
<path d="M282.97 107.181V104.641C282.97 104.503 282.915 104.372 282.818 104.274C282.721 104.177 282.589 104.123 282.452 104.123H281.813C281.711 104.122 281.611 104.086 281.531 104.022C281.451 103.958 281.396 103.868 281.373 103.768C281.144 102.764 280.751 101.805 280.21 100.93C280.157 100.843 280.135 100.742 280.147 100.642C280.158 100.542 280.203 100.448 280.273 100.376L280.706 99.9433C280.795 99.8465 280.844 99.7199 280.844 99.5885C280.844 99.4572 280.795 99.3306 280.706 99.2337L278.911 97.4385C278.816 97.3466 278.689 97.2952 278.556 97.2952C278.424 97.2952 278.297 97.3466 278.201 97.4385L277.769 97.8714C277.696 97.9437 277.6 97.9888 277.498 97.9992C277.396 98.0095 277.294 97.9844 277.208 97.9281C276.333 97.3852 275.374 96.992 274.37 96.7644C274.271 96.7423 274.182 96.6876 274.118 96.6092C274.053 96.5307 274.017 96.433 274.015 96.3316V95.7143C274.015 95.5769 273.96 95.4452 273.863 95.348C273.766 95.2509 273.634 95.1963 273.497 95.1963H270.957C270.821 95.1982 270.691 95.2535 270.595 95.3505C270.499 95.4474 270.446 95.5781 270.446 95.7143V96.3316C270.444 96.433 270.407 96.5307 270.343 96.6092C270.279 96.6876 270.19 96.7423 270.091 96.7644C269.087 96.9912 268.127 97.3845 267.253 97.9281C267.167 97.9844 267.065 98.0095 266.962 97.9992C266.86 97.9888 266.765 97.9437 266.692 97.8714L266.259 97.4385C266.164 97.3466 266.037 97.2952 265.905 97.2952C265.772 97.2952 265.645 97.3466 265.55 97.4385L263.755 99.2337C263.666 99.3306 263.617 99.4572 263.617 99.5885C263.617 99.7199 263.666 99.8465 263.755 99.9433L264.187 100.376C264.258 100.448 264.303 100.542 264.314 100.642C264.326 100.742 264.304 100.843 264.251 100.93C263.71 101.805 263.317 102.764 263.088 103.768C263.065 103.868 263.01 103.958 262.93 104.022C262.85 104.086 262.75 104.122 262.648 104.123H262.03C261.894 104.125 261.764 104.18 261.669 104.277C261.573 104.374 261.52 104.504 261.52 104.641V107.181C261.52 107.316 261.573 107.446 261.669 107.542C261.765 107.638 261.895 107.692 262.03 107.692H262.655C262.757 107.692 262.857 107.728 262.937 107.792C263.017 107.857 263.072 107.946 263.095 108.047C263.324 109.05 263.717 110.009 264.258 110.885C264.313 110.97 264.337 111.071 264.327 111.171C264.316 111.272 264.272 111.366 264.202 111.438L263.762 111.878C263.67 111.973 263.618 112.101 263.618 112.233C263.618 112.365 263.67 112.493 263.762 112.588L265.557 114.39C265.654 114.479 265.78 114.528 265.912 114.528C266.043 114.528 266.17 114.479 266.267 114.39L266.699 113.95C266.772 113.878 266.867 113.833 266.97 113.822C267.072 113.812 267.174 113.837 267.26 113.893C268.135 114.436 269.094 114.829 270.098 115.057C270.198 115.077 270.289 115.131 270.353 115.21C270.418 115.289 270.453 115.388 270.453 115.49V116.114C270.453 116.25 270.507 116.38 270.603 116.476C270.698 116.571 270.828 116.625 270.964 116.625H273.504C273.64 116.625 273.771 116.572 273.868 116.476C273.965 116.38 274.02 116.25 274.022 116.114V115.49C274.022 115.388 274.057 115.289 274.122 115.21C274.187 115.131 274.277 115.077 274.377 115.057C275.381 114.83 276.34 114.436 277.215 113.893C277.301 113.837 277.403 113.812 277.506 113.822C277.608 113.833 277.703 113.878 277.776 113.95L278.209 114.39C278.305 114.479 278.432 114.528 278.563 114.528C278.695 114.528 278.821 114.479 278.918 114.39L280.713 112.588C280.805 112.493 280.857 112.365 280.857 112.233C280.857 112.101 280.805 111.973 280.713 111.878L280.28 111.438C280.21 111.366 280.165 111.273 280.154 111.173C280.142 111.072 280.164 110.971 280.217 110.885C280.758 110.009 281.151 109.05 281.38 108.047C281.403 107.946 281.458 107.857 281.538 107.792C281.618 107.728 281.718 107.692 281.82 107.692H282.438C282.506 107.694 282.574 107.682 282.639 107.657C282.703 107.632 282.761 107.595 282.811 107.548C282.86 107.5 282.9 107.443 282.927 107.38C282.954 107.317 282.969 107.25 282.97 107.181ZM271.617 111.339C270.568 111.224 269.575 110.808 268.758 110.14C267.94 109.473 267.334 108.584 267.011 107.579C266.688 106.575 266.663 105.499 266.939 104.48C267.215 103.462 267.779 102.545 268.565 101.841C269.35 101.136 270.322 100.674 271.365 100.51C272.407 100.347 273.474 100.488 274.438 100.918C275.401 101.347 276.22 102.047 276.795 102.932C277.369 103.816 277.676 104.849 277.676 105.904C277.673 106.667 277.51 107.422 277.199 108.12C276.887 108.817 276.433 109.441 275.866 109.953C275.299 110.465 274.631 110.852 273.905 111.091C273.18 111.33 272.412 111.414 271.652 111.339H271.617Z" fill="#61D3FF"/>
<path d="M285.366 166.543V164.791C285.366 164.697 285.329 164.606 285.262 164.54C285.196 164.473 285.106 164.436 285.011 164.436H284.586C284.515 164.436 284.446 164.412 284.391 164.369C284.336 164.325 284.297 164.263 284.281 164.195C284.126 163.506 283.855 162.848 283.479 162.25C283.442 162.191 283.426 162.121 283.434 162.052C283.442 161.982 283.472 161.917 283.521 161.867L283.819 161.562C283.853 161.53 283.88 161.492 283.899 161.449C283.917 161.406 283.927 161.36 283.927 161.314C283.927 161.267 283.917 161.221 283.899 161.179C283.88 161.136 283.853 161.097 283.819 161.065L282.585 159.824C282.552 159.79 282.513 159.764 282.469 159.746C282.426 159.728 282.38 159.719 282.333 159.719C282.286 159.719 282.24 159.728 282.196 159.746C282.153 159.764 282.114 159.79 282.081 159.824L281.783 160.122C281.733 160.172 281.666 160.204 281.595 160.212C281.524 160.22 281.453 160.203 281.393 160.164C280.796 159.792 280.141 159.521 279.456 159.363C279.386 159.347 279.324 159.308 279.279 159.253C279.234 159.197 279.209 159.129 279.207 159.057V158.617C279.207 158.523 279.17 158.433 279.103 158.367C279.037 158.3 278.947 158.263 278.852 158.263H277.1C277.006 158.263 276.915 158.3 276.849 158.367C276.782 158.433 276.745 158.523 276.745 158.617V159.043C276.745 159.114 276.721 159.183 276.678 159.238C276.634 159.293 276.573 159.332 276.504 159.348C275.815 159.503 275.157 159.774 274.56 160.15C274.501 160.19 274.43 160.207 274.36 160.199C274.29 160.191 274.225 160.159 274.176 160.108L273.871 159.81C273.839 159.776 273.801 159.749 273.758 159.73C273.715 159.712 273.669 159.702 273.623 159.702C273.576 159.702 273.53 159.712 273.488 159.73C273.445 159.749 273.406 159.776 273.375 159.81L272.133 161.051C272.099 161.083 272.072 161.122 272.053 161.164C272.035 161.207 272.025 161.253 272.025 161.3C272.025 161.346 272.035 161.392 272.053 161.435C272.072 161.478 272.099 161.516 272.133 161.548L272.431 161.853C272.482 161.902 272.515 161.967 272.522 162.037C272.53 162.107 272.513 162.178 272.473 162.236C272.101 162.836 271.83 163.493 271.672 164.18C271.656 164.249 271.617 164.311 271.561 164.354C271.506 164.398 271.437 164.422 271.366 164.422H270.941C270.847 164.422 270.756 164.459 270.69 164.526C270.623 164.592 270.586 164.682 270.586 164.777V166.529C270.586 166.623 270.623 166.713 270.69 166.78C270.756 166.847 270.847 166.884 270.941 166.884H271.366C271.437 166.885 271.505 166.909 271.56 166.953C271.615 166.996 271.654 167.057 271.672 167.125C271.83 167.813 272.101 168.47 272.473 169.069C272.513 169.128 272.53 169.199 272.522 169.269C272.515 169.339 272.482 169.404 272.431 169.453L272.133 169.758C272.1 169.791 272.073 169.83 272.055 169.873C272.037 169.916 272.028 169.963 272.028 170.01C272.028 170.056 272.037 170.103 272.055 170.146C272.073 170.189 272.1 170.229 272.133 170.261L273.375 171.496C273.406 171.53 273.445 171.557 273.488 171.576C273.53 171.594 273.576 171.604 273.623 171.604C273.669 171.604 273.715 171.594 273.758 171.576C273.801 171.557 273.839 171.53 273.871 171.496L274.176 171.198C274.226 171.148 274.291 171.116 274.36 171.109C274.43 171.101 274.501 171.117 274.56 171.156C275.159 171.528 275.816 171.799 276.504 171.957C276.573 171.973 276.634 172.012 276.678 172.068C276.721 172.123 276.745 172.192 276.745 172.262V172.688C276.745 172.782 276.782 172.873 276.849 172.939C276.915 173.006 277.006 173.043 277.1 173.043H278.852C278.947 173.043 279.037 173.006 279.103 172.939C279.17 172.873 279.207 172.782 279.207 172.688V172.262C279.209 172.191 279.234 172.122 279.279 172.067C279.324 172.012 279.386 171.973 279.456 171.957C280.141 171.799 280.796 171.528 281.393 171.156C281.451 171.116 281.522 171.099 281.592 171.107C281.662 171.114 281.727 171.147 281.776 171.198L282.081 171.496C282.114 171.529 282.153 171.556 282.196 171.574C282.24 171.592 282.286 171.601 282.333 171.601C282.38 171.601 282.426 171.592 282.469 171.574C282.513 171.556 282.552 171.529 282.585 171.496L283.819 170.261C283.853 170.229 283.879 170.189 283.897 170.146C283.915 170.103 283.924 170.056 283.924 170.01C283.924 169.963 283.915 169.916 283.897 169.873C283.879 169.83 283.853 169.791 283.819 169.758L283.521 169.453C283.47 169.404 283.438 169.339 283.43 169.269C283.422 169.199 283.439 169.128 283.479 169.069C283.852 168.47 284.123 167.813 284.281 167.125C284.298 167.057 284.337 166.996 284.392 166.953C284.447 166.909 284.515 166.885 284.586 166.884H285.011C285.103 166.884 285.191 166.849 285.257 166.785C285.324 166.722 285.363 166.635 285.366 166.543ZM277.561 169.382C276.838 169.302 276.153 169.015 275.589 168.555C275.026 168.095 274.608 167.481 274.385 166.788C274.163 166.096 274.146 165.353 274.336 164.651C274.526 163.949 274.916 163.316 275.458 162.831C275.999 162.345 276.67 162.027 277.389 161.914C278.108 161.801 278.844 161.899 279.508 162.196C280.173 162.492 280.737 162.975 281.133 163.585C281.529 164.196 281.74 164.908 281.74 165.635C281.743 166.167 281.634 166.693 281.42 167.18C281.205 167.666 280.89 168.102 280.496 168.458C280.101 168.815 279.636 169.084 279.13 169.248C278.624 169.412 278.09 169.467 277.561 169.41V169.382Z" fill="#61D3FF"/>
<path d="M91.4762 110.572V107.401C91.4762 107.229 91.4082 107.065 91.2871 106.944C91.166 106.823 91.0018 106.755 90.8305 106.755H90.0571C89.9304 106.754 89.8078 106.71 89.7096 106.63C89.6115 106.55 89.5438 106.439 89.5178 106.315C89.2289 105.072 88.7374 103.886 88.0632 102.803C87.9895 102.695 87.9562 102.565 87.9692 102.435C87.9822 102.305 88.0406 102.184 88.1342 102.093L88.6805 101.547C88.8001 101.426 88.8672 101.263 88.8672 101.093C88.8672 100.923 88.8001 100.759 88.6805 100.638L86.4383 98.3963C86.3794 98.3353 86.3088 98.2868 86.2308 98.2537C86.1528 98.2206 86.0689 98.2036 85.9842 98.2036C85.8994 98.2036 85.8155 98.2206 85.7375 98.2537C85.6595 98.2868 85.5889 98.3353 85.53 98.3963L84.9837 98.9355C84.892 99.0279 84.7711 99.0854 84.6416 99.0984C84.5122 99.1113 84.3822 99.0788 84.2741 99.0065C83.177 98.3428 81.9785 97.8634 80.7263 97.5874C80.6023 97.5587 80.4916 97.4893 80.4118 97.3903C80.332 97.2912 80.2879 97.1682 80.2863 97.041V96.2676C80.2864 96.1831 80.2696 96.0995 80.2371 96.0215C80.2045 95.9436 80.1568 95.8729 80.0968 95.8135C80.0367 95.7541 79.9655 95.7072 79.8872 95.6755C79.8089 95.6438 79.7251 95.628 79.6406 95.6289H76.4689C76.2995 95.6289 76.1371 95.6962 76.0173 95.816C75.8975 95.9358 75.8303 96.0982 75.8303 96.2676V97.041C75.8288 97.1682 75.7846 97.2912 75.7048 97.3903C75.625 97.4893 75.5143 97.5587 75.3903 97.5874C74.1381 97.8634 72.9396 98.3428 71.8425 99.0065C71.7348 99.0802 71.6046 99.1135 71.4747 99.1005C71.3449 99.0875 71.2238 99.0291 71.1329 98.9355L70.5866 98.3963C70.5277 98.3353 70.4571 98.2868 70.3791 98.2537C70.3011 98.2206 70.2172 98.2036 70.1324 98.2036C70.0477 98.2036 69.9638 98.2206 69.8858 98.2537C69.8078 98.2868 69.7372 98.3353 69.6783 98.3963L67.5283 100.653C67.4087 100.774 67.3416 100.937 67.3416 101.107C67.3416 101.277 67.4087 101.44 67.5283 101.561L68.0676 102.1C68.1598 102.192 68.2179 102.312 68.2321 102.441C68.2463 102.57 68.2158 102.7 68.1456 102.81C67.4714 103.893 66.98 105.079 66.691 106.322C66.6648 106.447 66.5961 106.56 66.4964 106.64C66.3968 106.72 66.2725 106.763 66.1447 106.762H65.3996C65.2284 106.762 65.0641 106.83 64.943 106.951C64.8219 107.072 64.7539 107.237 64.7539 107.408V110.58C64.7539 110.751 64.8219 110.915 64.943 111.036C65.0641 111.157 65.2284 111.225 65.3996 111.225H66.173C66.2997 111.226 66.4223 111.27 66.5205 111.35C66.6186 111.43 66.6863 111.541 66.7123 111.665C66.9997 112.919 67.4911 114.118 68.1669 115.213C68.238 115.322 68.2697 115.451 68.2568 115.58C68.2439 115.709 68.1871 115.83 68.096 115.923L67.5496 116.462C67.43 116.583 67.3629 116.746 67.3629 116.916C67.3629 117.086 67.43 117.249 67.5496 117.37L69.7918 119.619C69.9127 119.739 70.0759 119.806 70.246 119.806C70.416 119.806 70.5792 119.739 70.7001 119.619L71.2464 119.073C71.3381 118.981 71.459 118.923 71.5885 118.91C71.718 118.897 71.8479 118.93 71.956 119.002C73.0532 119.666 74.2517 120.145 75.5038 120.421C75.6284 120.449 75.7399 120.518 75.8198 120.617C75.8998 120.716 75.9435 120.84 75.9438 120.968V121.72C75.9428 121.804 75.9587 121.888 75.9904 121.966C76.022 122.045 76.0689 122.116 76.1283 122.176C76.1877 122.236 76.2584 122.284 76.3364 122.316C76.4143 122.349 76.4979 122.365 76.5824 122.365H79.7542C79.9077 122.342 80.0474 122.263 80.1478 122.145C80.2482 122.026 80.3024 121.875 80.3005 121.72V120.946C80.3008 120.819 80.3445 120.695 80.4245 120.596C80.5045 120.496 80.6159 120.427 80.7405 120.4C81.9927 120.124 83.1912 119.644 84.2883 118.981C84.3964 118.908 84.5264 118.876 84.6558 118.889C84.7853 118.902 84.9062 118.959 84.9979 119.052L85.5442 119.598C85.6651 119.718 85.8283 119.785 85.9984 119.785C86.1684 119.785 86.3316 119.718 86.4525 119.598L88.6947 117.349C88.8143 117.228 88.8814 117.065 88.8814 116.895C88.8814 116.725 88.8143 116.561 88.6947 116.441L88.1483 115.901C88.0572 115.809 88.0005 115.688 87.9875 115.559C87.9746 115.43 88.0063 115.3 88.0774 115.192C88.7552 114.098 89.2468 112.899 89.532 111.644C89.558 111.52 89.6257 111.409 89.7238 111.329C89.822 111.248 89.9446 111.205 90.0713 111.204H90.8447C91.011 111.2 91.1696 111.133 91.2872 111.015C91.4049 110.897 91.4726 110.739 91.4762 110.572ZM77.3487 115.766C76.04 115.623 74.8008 115.103 73.781 114.27C72.7611 113.437 72.0042 112.327 71.6015 111.074C71.1989 109.82 71.1678 108.477 71.5119 107.206C71.8561 105.935 72.5609 104.791 73.5411 103.912C74.5213 103.033 75.7351 102.456 77.0358 102.252C78.3365 102.048 79.6685 102.224 80.871 102.761C82.0735 103.297 83.0951 104.17 83.8123 105.274C84.5295 106.378 84.9117 107.666 84.9127 108.983C84.909 109.94 84.7046 110.886 84.3127 111.76C83.9207 112.634 83.3499 113.415 82.6371 114.054C81.9243 114.694 81.0853 115.176 80.1744 115.471C79.2635 115.766 78.3009 115.867 77.3487 115.766Z" fill="#61D3FF"/>
<path d="M88.4669 201.008C86.2037 201.005 83.982 201.615 82.0383 202.775C81.6374 199.364 79.9499 196.234 77.3202 194.025C74.6905 191.816 71.3169 190.694 67.888 190.888C64.459 191.081 61.2333 192.577 58.8692 195.068C56.5051 197.559 55.1809 200.859 55.1669 204.293C55.1666 204.786 55.195 205.279 55.2521 205.769C54.6225 205.652 53.9837 205.593 53.3433 205.592C50.6807 205.69 48.1601 206.818 46.3114 208.736C44.4626 210.655 43.4297 213.216 43.4297 215.88C43.4297 218.545 44.4626 221.105 46.3114 223.024C48.1601 224.943 50.6807 226.07 53.3433 226.169H88.4669C91.7527 226.091 94.8777 224.731 97.174 222.379C99.4703 220.028 100.756 216.872 100.756 213.585C100.756 210.298 99.4703 207.142 97.174 204.79C94.8777 202.439 91.7527 201.079 88.4669 201.001V201.008Z" fill="#61D3FF"/>
<path d="M145.486 242.424C144.005 242.424 142.551 242.823 141.278 243.581C141.039 241.332 139.944 239.261 138.221 237.796C136.497 236.332 134.276 235.587 132.018 235.714C129.76 235.842 127.637 236.833 126.089 238.482C124.541 240.131 123.687 242.312 123.703 244.574C123.703 244.897 123.722 245.219 123.759 245.539C123.347 245.465 122.929 245.427 122.51 245.426C120.723 245.426 119.008 246.136 117.744 247.4C116.48 248.664 115.77 250.379 115.77 252.166C115.77 253.954 116.48 255.669 117.744 256.933C119.008 258.197 120.723 258.907 122.51 258.907H145.486C147.628 258.844 149.662 257.949 151.155 256.412C152.647 254.874 153.483 252.816 153.483 250.673C153.483 248.53 152.647 246.471 151.155 244.934C149.662 243.396 147.628 242.501 145.486 242.438V242.424Z" fill="#61D3FF"/>
<path d="M178.332 201.881H151.609V220.259H178.332V201.881Z" fill="#1B97FF"/>
<path d="M178.332 210.232L151.609 207.586V201.881H178.332V210.232Z" fill="#0B82E6"/>
<path d="M192.092 219.965H137.853C137.445 219.965 137.041 220.045 136.665 220.202C136.288 220.358 135.946 220.587 135.658 220.876C135.37 221.164 135.141 221.507 134.986 221.884C134.831 222.261 134.751 222.665 134.752 223.073V226.174H195.193V223.073C195.193 222.25 194.866 221.46 194.285 220.878C193.704 220.295 192.915 219.967 192.092 219.965Z" fill="#1B97FF"/>
<path d="M248.578 88.8516H81.3546C80.4901 88.8534 79.6617 89.1982 79.0512 89.8101C78.4406 90.422 78.0977 91.2511 78.0977 92.1156V202.538C78.0977 203.403 78.4406 204.232 79.0512 204.844C79.6617 205.456 80.4901 205.801 81.3546 205.802H248.578C249.007 205.802 249.431 205.718 249.826 205.554C250.222 205.39 250.581 205.149 250.884 204.846C251.186 204.543 251.426 204.183 251.589 203.787C251.753 203.391 251.836 202.967 251.835 202.538V92.1156C251.836 91.6873 251.753 91.263 251.589 90.867C251.426 90.4711 251.186 90.1112 250.884 89.808C250.581 89.5048 250.222 89.2643 249.826 89.1002C249.431 88.936 249.007 88.8516 248.578 88.8516Z" fill="#1B97FF"/>
<path d="M247.357 92.1182H82.5813C81.6055 92.1182 80.8145 92.9092 80.8145 93.885V190.805C80.8145 191.781 81.6055 192.572 82.5813 192.572H247.357C248.333 192.572 249.124 191.781 249.124 190.805V93.885C249.124 92.9092 248.333 92.1182 247.357 92.1182Z" fill="#30C5FF"/>
<path d="M168.191 198.759C168.191 199.398 168.002 200.022 167.647 200.553C167.292 201.084 166.787 201.498 166.197 201.742C165.606 201.986 164.957 202.05 164.33 201.925C163.704 201.8 163.129 201.491 162.677 201.039C162.226 200.587 161.919 200.011 161.796 199.384C161.672 198.758 161.737 198.108 161.982 197.518C162.228 196.929 162.643 196.425 163.174 196.071C163.706 195.717 164.331 195.529 164.97 195.53C165.825 195.532 166.644 195.873 167.248 196.478C167.852 197.084 168.191 197.904 168.191 198.759Z" fill="#A0C8EF"/>
<path d="M241.782 96.9434H87.8763C86.9868 96.9434 86.2656 97.6645 86.2656 98.5541V186.136C86.2656 187.026 86.9868 187.747 87.8763 187.747H241.782C242.671 187.747 243.392 187.026 243.392 186.136V98.5541C243.392 97.6645 242.671 96.9434 241.782 96.9434Z" fill="#9DD2F2"/>
<path d="M238.042 100.064H91.6303C90.8583 100.064 90.2324 100.69 90.2324 101.462V183.219C90.2324 183.991 90.8583 184.617 91.6303 184.617H238.042C238.814 184.617 239.44 183.991 239.44 183.219V101.462C239.44 100.69 238.814 100.064 238.042 100.064Z" fill="white"/>
<path d="M215.671 106.777C216.991 106.777 218.062 105.706 218.062 104.385C218.062 103.065 216.991 101.994 215.671 101.994C214.35 101.994 213.279 103.065 213.279 104.385C213.279 105.706 214.35 106.777 215.671 106.777Z" fill="#9DD2F2"/>
<path d="M224.893 106.777C226.214 106.777 227.284 105.706 227.284 104.385C227.284 103.065 226.214 101.994 224.893 101.994C223.573 101.994 222.502 103.065 222.502 104.385C222.502 105.706 223.573 106.777 224.893 106.777Z" fill="#9DD2F2"/>
<path d="M234.12 106.777C235.44 106.777 236.511 105.706 236.511 104.385C236.511 103.065 235.44 101.994 234.12 101.994C232.799 101.994 231.729 103.065 231.729 104.385C231.729 105.706 232.799 106.777 234.12 106.777Z" fill="#9DD2F2"/>
<path d="M236.509 108.989H92.9141" stroke="#9DD2F2" stroke-miterlimit="10" stroke-linecap="round"/>
<path opacity="0.46" d="M93.8867 112.233H121.56C121.815 112.237 122.059 112.341 122.238 112.523C122.417 112.705 122.518 112.95 122.518 113.206V181.267C122.518 181.525 122.415 181.772 122.233 181.955C122.051 182.137 121.803 182.239 121.546 182.239H93.8725C93.6152 182.237 93.3691 182.134 93.1872 181.953C93.0053 181.771 92.9022 181.524 92.9004 181.267V113.206C92.9013 113.077 92.9276 112.95 92.9776 112.831C93.0277 112.713 93.1006 112.605 93.1922 112.515C93.2838 112.425 93.3922 112.354 93.5114 112.305C93.6306 112.257 93.7581 112.232 93.8867 112.233Z" fill="#9DD2F2"/>
<path opacity="0.46" d="M236.028 112.233H125.818C125.281 112.233 124.846 112.669 124.846 113.206V181.274C124.846 181.811 125.281 182.246 125.818 182.246H236.028C236.565 182.246 237 181.811 237 181.274V113.206C237 112.669 236.565 112.233 236.028 112.233Z" fill="#BEEAFC"/>
<g opacity="0.62">
<g opacity="0.62">
<path opacity="0.62" d="M161.843 118.357V118.611C161.843 118.925 161.718 119.226 161.496 119.447C161.275 119.669 160.974 119.793 160.661 119.793H152.104C151.79 119.793 151.49 119.918 151.268 120.14C151.046 120.361 150.922 120.662 150.922 120.975V132.593C150.922 132.907 151.046 133.207 151.268 133.429C151.49 133.651 151.79 133.775 152.104 133.775H169.519C169.833 133.775 170.133 133.651 170.355 133.429C170.576 133.207 170.701 132.907 170.701 132.593V118.357C170.701 118.028 170.57 117.713 170.338 117.48C170.105 117.247 169.789 117.116 169.46 117.116H163.101C162.937 117.114 162.774 117.144 162.621 117.206C162.468 117.267 162.329 117.358 162.212 117.473C162.095 117.589 162.002 117.727 161.939 117.878C161.875 118.03 161.843 118.193 161.843 118.357Z" fill="#5699E8"/>
<path opacity="0.62" d="M167.826 132.641L167.732 132.275L165.758 124.716C165.669 124.369 165.466 124.06 165.183 123.84C164.9 123.619 164.551 123.5 164.192 123.499H149.193C149.075 123.499 148.958 123.526 148.852 123.578C148.746 123.63 148.653 123.706 148.58 123.799C148.508 123.893 148.457 124.002 148.434 124.118C148.41 124.234 148.413 124.354 148.443 124.468L150.523 132.446C150.624 132.838 150.853 133.186 151.175 133.432C151.496 133.679 151.891 133.81 152.296 133.805H169.434C169.075 133.816 168.722 133.708 168.431 133.497C168.141 133.286 167.928 132.985 167.826 132.641Z" fill="#71B8FF"/>
<path opacity="0.62" d="M190.944 118.357V118.612C190.944 118.925 190.82 119.226 190.598 119.447C190.376 119.669 190.076 119.793 189.762 119.793H181.205C180.892 119.793 180.591 119.918 180.37 120.14C180.148 120.361 180.023 120.662 180.023 120.975V132.593C180.023 132.907 180.148 133.208 180.37 133.429C180.591 133.651 180.892 133.775 181.205 133.775H198.621C198.934 133.775 199.235 133.651 199.456 133.429C199.678 133.208 199.803 132.907 199.803 132.593V118.357C199.806 118.192 199.776 118.028 199.714 117.874C199.653 117.72 199.562 117.58 199.445 117.462C199.329 117.345 199.191 117.251 199.038 117.188C198.885 117.124 198.721 117.092 198.556 117.093H192.173C192.009 117.094 191.847 117.128 191.697 117.193C191.546 117.257 191.409 117.351 191.295 117.469C191.181 117.586 191.091 117.725 191.031 117.878C190.97 118.031 190.941 118.193 190.944 118.357Z" fill="#5699E8"/>
<path opacity="0.62" d="M196.926 132.641L196.831 132.275L194.857 124.716C194.768 124.369 194.566 124.06 194.283 123.84C193.999 123.619 193.65 123.5 193.291 123.499H178.299C178.181 123.499 178.064 123.526 177.957 123.578C177.851 123.63 177.758 123.706 177.686 123.799C177.613 123.893 177.563 124.002 177.539 124.118C177.515 124.234 177.519 124.354 177.548 124.468L179.646 132.458C179.747 132.85 179.976 133.197 180.298 133.444C180.619 133.69 181.014 133.822 181.419 133.817H198.557C198.192 133.832 197.833 133.725 197.537 133.512C197.242 133.298 197.026 132.992 196.926 132.641Z" fill="#71B8FF"/>
<path opacity="0.62" d="M220.05 118.357V118.611C220.05 118.925 219.925 119.225 219.704 119.447C219.482 119.669 219.181 119.793 218.868 119.793H210.311C209.997 119.793 209.697 119.918 209.475 120.139C209.253 120.361 209.129 120.662 209.129 120.975V132.593C209.129 132.907 209.253 133.207 209.475 133.429C209.697 133.651 209.997 133.775 210.311 133.775H227.726C228.04 133.775 228.34 133.651 228.562 133.429C228.784 133.207 228.908 132.907 228.908 132.593V118.357C228.908 118.028 228.777 117.712 228.545 117.48C228.312 117.247 227.996 117.116 227.667 117.116H221.285C220.957 117.118 220.642 117.249 220.411 117.482C220.18 117.714 220.05 118.029 220.05 118.357Z" fill="#61D3FF"/>
<path opacity="0.62" d="M226.029 132.641L225.935 132.275L223.967 124.716C223.878 124.369 223.675 124.06 223.392 123.84C223.108 123.619 222.76 123.5 222.401 123.499H207.42C207.302 123.499 207.185 123.526 207.078 123.578C206.972 123.63 206.879 123.706 206.807 123.799C206.734 123.893 206.684 124.002 206.66 124.118C206.637 124.234 206.64 124.354 206.669 124.468L208.75 132.446C208.85 132.838 209.08 133.186 209.401 133.432C209.723 133.679 210.117 133.81 210.523 133.805H227.66C227.297 133.821 226.939 133.715 226.644 133.504C226.348 133.293 226.132 132.989 226.029 132.641Z" fill="#BEEAFC"/>
<path opacity="0.62" d="M161.843 140.867V141.115C161.843 141.429 161.718 141.729 161.496 141.951C161.275 142.173 160.974 142.297 160.661 142.297H152.104C151.79 142.297 151.49 142.422 151.268 142.643C151.046 142.865 150.922 143.166 150.922 143.479V155.103C150.922 155.417 151.046 155.717 151.268 155.939C151.49 156.16 151.79 156.285 152.104 156.285H169.519C169.833 156.285 170.133 156.16 170.355 155.939C170.576 155.717 170.701 155.417 170.701 155.103V140.867C170.701 140.538 170.57 140.222 170.338 139.99C170.105 139.757 169.789 139.626 169.46 139.626H163.101C162.937 139.624 162.774 139.654 162.621 139.715C162.468 139.777 162.329 139.868 162.212 139.983C162.095 140.099 162.002 140.236 161.939 140.388C161.875 140.54 161.843 140.703 161.843 140.867Z" fill="#5699E8"/>
<path opacity="0.62" d="M167.826 155.15L167.732 154.783L165.752 147.231C165.663 146.883 165.461 146.575 165.177 146.354C164.894 146.134 164.545 146.014 164.186 146.014H149.193C149.075 146.013 148.958 146.04 148.852 146.092C148.746 146.145 148.653 146.22 148.58 146.314C148.508 146.407 148.457 146.516 148.434 146.632C148.41 146.748 148.413 146.868 148.443 146.983L150.523 154.961C150.625 155.353 150.854 155.699 151.175 155.945C151.497 156.192 151.891 156.324 152.296 156.32H169.434C169.074 156.33 168.721 156.221 168.43 156.009C168.139 155.798 167.927 155.495 167.826 155.15Z" fill="#71B8FF"/>
<path opacity="0.62" d="M190.944 140.867V141.115C190.944 141.429 190.82 141.729 190.598 141.951C190.376 142.173 190.076 142.297 189.762 142.297H181.205C180.892 142.297 180.591 142.422 180.37 142.643C180.148 142.865 180.023 143.166 180.023 143.479V155.103C180.023 155.416 180.148 155.717 180.37 155.939C180.591 156.16 180.892 156.285 181.205 156.285H198.621C198.934 156.285 199.235 156.16 199.456 155.939C199.678 155.717 199.803 155.416 199.803 155.103V140.867C199.803 140.538 199.672 140.222 199.439 139.989C199.206 139.757 198.891 139.626 198.562 139.626H192.179C191.851 139.628 191.537 139.759 191.306 139.992C191.074 140.224 190.944 140.539 190.944 140.867Z" fill="#61D3FF"/>
<path opacity="0.62" d="M196.926 155.15L196.831 154.783L194.857 147.231C194.768 146.883 194.566 146.575 194.283 146.354C193.999 146.134 193.65 146.014 193.291 146.014H178.299C178.181 146.013 178.064 146.04 177.957 146.092C177.851 146.145 177.758 146.22 177.686 146.314C177.613 146.407 177.563 146.516 177.539 146.632C177.515 146.748 177.519 146.868 177.548 146.983L179.629 154.961C179.73 155.353 179.96 155.699 180.281 155.945C180.602 156.192 180.997 156.324 181.401 156.32H198.539C198.178 156.332 197.824 156.223 197.532 156.011C197.24 155.799 197.027 155.496 196.926 155.15Z" fill="#BEEAFC"/>
<path opacity="0.62" d="M220.05 140.867V141.115C220.05 141.429 219.925 141.729 219.704 141.951C219.482 142.173 219.181 142.297 218.868 142.297H210.311C209.997 142.297 209.697 142.422 209.475 142.643C209.253 142.865 209.129 143.166 209.129 143.479V155.103C209.129 155.416 209.253 155.717 209.475 155.939C209.697 156.16 209.997 156.285 210.311 156.285H227.726C228.04 156.285 228.34 156.16 228.562 155.939C228.784 155.717 228.908 155.416 228.908 155.103V140.867C228.908 140.538 228.777 140.222 228.545 139.989C228.312 139.757 227.996 139.626 227.667 139.626H221.285C220.957 139.628 220.642 139.759 220.411 139.992C220.18 140.224 220.05 140.539 220.05 140.867Z" fill="#61D3FF"/>
<path opacity="0.62" d="M226.029 155.15L225.935 154.783L223.967 147.231C223.878 146.883 223.675 146.575 223.392 146.354C223.108 146.134 222.76 146.014 222.401 146.014H207.42C207.302 146.013 207.185 146.04 207.078 146.092C206.972 146.145 206.879 146.22 206.807 146.314C206.734 146.407 206.684 146.516 206.66 146.632C206.637 146.748 206.64 146.868 206.669 146.983L208.75 154.961C208.851 155.353 209.081 155.699 209.402 155.945C209.723 156.192 210.118 156.324 210.523 156.32H227.66C227.296 156.336 226.938 156.229 226.642 156.017C226.347 155.805 226.131 155.499 226.029 155.15Z" fill="#BEEAFC"/>
<path opacity="0.62" d="M161.843 163.37V163.624C161.843 163.938 161.718 164.238 161.496 164.46C161.275 164.682 160.974 164.806 160.661 164.806H152.104C151.79 164.806 151.49 164.931 151.268 165.152C151.046 165.374 150.922 165.674 150.922 165.988V177.612C150.922 177.925 151.046 178.226 151.268 178.448C151.49 178.669 151.79 178.794 152.104 178.794H169.519C169.833 178.794 170.133 178.669 170.355 178.448C170.576 178.226 170.701 177.925 170.701 177.612V163.37C170.701 163.207 170.669 163.046 170.607 162.895C170.544 162.745 170.453 162.608 170.338 162.493C170.222 162.377 170.085 162.286 169.935 162.223C169.784 162.161 169.623 162.129 169.46 162.129H163.101C162.937 162.127 162.774 162.157 162.621 162.218C162.468 162.28 162.329 162.371 162.212 162.486C162.095 162.602 162.002 162.739 161.939 162.891C161.875 163.043 161.843 163.206 161.843 163.37Z" fill="#61D3FF"/>
<path opacity="0.62" d="M167.826 177.661L167.732 177.294L165.758 169.736C165.669 169.388 165.466 169.08 165.183 168.859C164.9 168.639 164.551 168.519 164.192 168.519H149.193C149.075 168.518 148.958 168.545 148.852 168.597C148.746 168.649 148.653 168.725 148.58 168.819C148.508 168.912 148.457 169.021 148.434 169.137C148.41 169.253 148.413 169.373 148.443 169.488L150.523 177.466C150.625 177.857 150.854 178.204 151.175 178.45C151.497 178.697 151.891 178.828 152.296 178.825H169.434C169.075 178.836 168.722 178.727 168.431 178.517C168.141 178.306 167.928 178.005 167.826 177.661Z" fill="#BEEAFC"/>
<path opacity="0.62" d="M190.944 163.37V163.624C190.944 163.937 190.82 164.238 190.598 164.46C190.376 164.681 190.076 164.806 189.762 164.806H181.205C180.892 164.806 180.591 164.93 180.37 165.152C180.148 165.374 180.023 165.674 180.023 165.988V177.612C180.023 177.925 180.148 178.226 180.37 178.448C180.591 178.669 180.892 178.794 181.205 178.794H198.621C198.934 178.794 199.235 178.669 199.456 178.448C199.678 178.226 199.803 177.925 199.803 177.612V163.37C199.803 163.207 199.77 163.046 199.708 162.895C199.646 162.744 199.554 162.608 199.439 162.492C199.324 162.377 199.187 162.286 199.036 162.223C198.886 162.161 198.725 162.129 198.562 162.129H192.179C191.851 162.13 191.537 162.262 191.306 162.494C191.074 162.727 190.944 163.042 190.944 163.37Z" fill="#61D3FF"/>
<path opacity="0.62" d="M196.926 177.659L196.831 177.292L194.857 169.734C194.768 169.386 194.566 169.078 194.283 168.857C193.999 168.637 193.65 168.517 193.291 168.517H178.299C178.181 168.516 178.064 168.543 177.957 168.595C177.851 168.647 177.758 168.723 177.686 168.817C177.613 168.91 177.563 169.019 177.539 169.135C177.515 169.251 177.519 169.371 177.548 169.486L179.629 177.464C179.73 177.855 179.96 178.202 180.281 178.448C180.602 178.695 180.997 178.826 181.401 178.823H198.539C198.179 178.835 197.825 178.727 197.533 178.516C197.241 178.306 197.028 178.004 196.926 177.659Z" fill="#BEEAFC"/>
<path opacity="0.62" d="M220.05 163.37V163.624C220.05 163.937 219.925 164.238 219.704 164.46C219.482 164.681 219.181 164.806 218.868 164.806H210.311C209.997 164.806 209.697 164.93 209.475 165.152C209.253 165.374 209.129 165.674 209.129 165.988V177.612C209.129 177.925 209.253 178.226 209.475 178.448C209.697 178.669 209.997 178.794 210.311 178.794H227.726C228.04 178.794 228.34 178.669 228.562 178.448C228.784 178.226 228.908 177.925 228.908 177.612V163.37C228.908 163.207 228.876 163.046 228.814 162.895C228.751 162.744 228.66 162.608 228.545 162.492C228.429 162.377 228.293 162.286 228.142 162.223C227.991 162.161 227.83 162.129 227.667 162.129H221.285C220.957 162.13 220.642 162.262 220.411 162.494C220.18 162.727 220.05 163.042 220.05 163.37Z" fill="#61D3FF"/>
<path opacity="0.62" d="M226.029 177.659L225.935 177.292L223.967 169.734C223.878 169.386 223.675 169.078 223.392 168.857C223.108 168.637 222.76 168.517 222.401 168.517H207.42C207.302 168.516 207.185 168.543 207.078 168.595C206.972 168.647 206.879 168.723 206.807 168.817C206.734 168.91 206.684 169.019 206.66 169.135C206.637 169.251 206.64 169.371 206.669 169.486L208.75 177.464C208.851 177.855 209.081 178.202 209.402 178.448C209.723 178.695 210.118 178.826 210.523 178.823H227.66C227.297 178.839 226.939 178.733 226.644 178.522C226.348 178.311 226.132 178.007 226.029 177.659Z" fill="#BEEAFC"/>
</g>
</g>
<path d="M235.637 113.327H234.487C234.299 113.327 234.146 113.48 234.146 113.668V180.835C234.146 181.023 234.299 181.176 234.487 181.176H235.637C235.825 181.176 235.977 181.023 235.977 180.835V113.668C235.977 113.48 235.825 113.327 235.637 113.327Z" fill="white"/>
<path d="M235.594 127.426H234.53C234.318 127.426 234.146 127.597 234.146 127.809V137.956C234.146 138.167 234.318 138.339 234.53 138.339H235.594C235.806 138.339 235.977 138.167 235.977 137.956V127.809C235.977 127.597 235.806 127.426 235.594 127.426Z" fill="#93C3DB"/>
<path d="M120.533 116.044V114.681C120.533 114.552 120.428 114.447 120.299 114.447H95.1378C95.0085 114.447 94.9036 114.552 94.9036 114.681V116.044C94.9036 116.173 95.0085 116.278 95.1378 116.278H120.299C120.428 116.278 120.533 116.173 120.533 116.044Z" fill="white"/>
<path d="M120.533 119.591V118.228C120.533 118.099 120.428 117.994 120.299 117.994H95.1378C95.0085 117.994 94.9036 118.099 94.9036 118.228V119.591C94.9036 119.72 95.0085 119.825 95.1378 119.825H120.299C120.428 119.825 120.533 119.72 120.533 119.591Z" fill="white"/>
<path d="M120.533 123.139V121.777C120.533 121.648 120.428 121.543 120.299 121.543H95.1378C95.0085 121.543 94.9036 121.648 94.9036 121.777V123.139C94.9036 123.269 95.0085 123.374 95.1378 123.374H120.299C120.428 123.374 120.533 123.269 120.533 123.139Z" fill="white"/>
<path d="M120.533 126.686V125.324C120.533 125.195 120.428 125.09 120.299 125.09H95.1378C95.0085 125.09 94.9036 125.195 94.9036 125.324V126.686C94.9036 126.816 95.0085 126.921 95.1378 126.921H120.299C120.428 126.921 120.533 126.816 120.533 126.686Z" fill="white"/>
<path d="M120.533 130.236V128.874C120.533 128.744 120.428 128.64 120.299 128.64H95.1378C95.0085 128.64 94.9036 128.744 94.9036 128.874V130.236C94.9036 130.365 95.0085 130.47 95.1378 130.47H120.299C120.428 130.47 120.533 130.365 120.533 130.236Z" fill="white"/>
<path d="M120.533 133.783V132.421C120.533 132.291 120.428 132.187 120.299 132.187H95.1378C95.0085 132.187 94.9036 132.291 94.9036 132.421V133.783C94.9036 133.912 95.0085 134.017 95.1378 134.017H120.299C120.428 134.017 120.533 133.912 120.533 133.783Z" fill="white"/>
<path d="M120.533 137.331V135.969C120.533 135.839 120.428 135.734 120.299 135.734H95.1378C95.0085 135.734 94.9036 135.839 94.9036 135.969V137.331C94.9036 137.46 95.0085 137.565 95.1378 137.565H120.299C120.428 137.565 120.533 137.46 120.533 137.331Z" fill="white"/>
<path d="M120.533 140.878V139.515C120.533 139.386 120.428 139.281 120.299 139.281H95.1378C95.0085 139.281 94.9036 139.386 94.9036 139.515V140.878C94.9036 141.007 95.0085 141.112 95.1378 141.112H120.299C120.428 141.112 120.533 141.007 120.533 140.878Z" fill="white"/>
<path d="M120.533 144.428V143.065C120.533 142.936 120.428 142.831 120.299 142.831H95.1378C95.0085 142.831 94.9036 142.936 94.9036 143.065V144.428C94.9036 144.557 95.0085 144.662 95.1378 144.662H120.299C120.428 144.662 120.533 144.557 120.533 144.428Z" fill="white"/>
<path d="M120.533 147.974V146.612C120.533 146.483 120.428 146.378 120.299 146.378H95.1378C95.0085 146.378 94.9036 146.483 94.9036 146.612V147.974C94.9036 148.104 95.0085 148.209 95.1378 148.209H120.299C120.428 148.209 120.533 148.104 120.533 147.974Z" fill="white"/>
<path d="M120.533 151.523V150.161C120.533 150.032 120.428 149.927 120.299 149.927H95.1378C95.0085 149.927 94.9036 150.032 94.9036 150.161V151.523C94.9036 151.653 95.0085 151.757 95.1378 151.757H120.299C120.428 151.757 120.533 151.653 120.533 151.523Z" fill="white"/>
<path d="M120.533 155.07V153.708C120.533 153.578 120.428 153.474 120.299 153.474H95.1378C95.0085 153.474 94.9036 153.578 94.9036 153.708V155.07C94.9036 155.199 95.0085 155.304 95.1378 155.304H120.299C120.428 155.304 120.533 155.199 120.533 155.07Z" fill="white"/>
<path d="M120.533 158.618V157.256C120.533 157.126 120.428 157.021 120.299 157.021H95.1378C95.0085 157.021 94.9036 157.126 94.9036 157.256V158.618C94.9036 158.747 95.0085 158.852 95.1378 158.852H120.299C120.428 158.852 120.533 158.747 120.533 158.618Z" fill="white"/>
<path d="M120.533 162.165V160.803C120.533 160.673 120.428 160.568 120.299 160.568H95.1378C95.0085 160.568 94.9036 160.673 94.9036 160.803V162.165C94.9036 162.294 95.0085 162.399 95.1378 162.399H120.299C120.428 162.399 120.533 162.294 120.533 162.165Z" fill="white"/>
<path d="M120.533 165.713V164.35C120.533 164.221 120.428 164.116 120.299 164.116H95.1378C95.0085 164.116 94.9036 164.221 94.9036 164.35V165.713C94.9036 165.842 95.0085 165.947 95.1378 165.947H120.299C120.428 165.947 120.533 165.842 120.533 165.713Z" fill="white"/>
<path d="M120.533 169.262V167.899C120.533 167.77 120.428 167.665 120.299 167.665H95.1378C95.0085 167.665 94.9036 167.77 94.9036 167.899V169.262C94.9036 169.391 95.0085 169.496 95.1378 169.496H120.299C120.428 169.496 120.533 169.391 120.533 169.262Z" fill="white"/>
<path d="M120.533 172.808V171.446C120.533 171.317 120.428 171.212 120.299 171.212H95.1378C95.0085 171.212 94.9036 171.317 94.9036 171.446V172.808C94.9036 172.938 95.0085 173.043 95.1378 173.043H120.299C120.428 173.043 120.533 172.938 120.533 172.808Z" fill="white"/>
<path d="M120.533 176.358V174.996C120.533 174.867 120.428 174.762 120.299 174.762H95.1378C95.0085 174.762 94.9036 174.867 94.9036 174.996V176.358C94.9036 176.488 95.0085 176.592 95.1378 176.592H120.299C120.428 176.592 120.533 176.488 120.533 176.358Z" fill="white"/>
<path d="M120.533 179.905V178.543C120.533 178.413 120.428 178.309 120.299 178.309H95.1378C95.0085 178.309 94.9036 178.413 94.9036 178.543V179.905C94.9036 180.034 95.0085 180.139 95.1378 180.139H120.299C120.428 180.139 120.533 180.034 120.533 179.905Z" fill="white"/>
<path d="M211.719 85.0917C211.705 83.5057 211.126 81.9765 210.086 80.7797C209.045 79.5828 207.611 78.7969 206.042 78.5637C183.967 75.2996 172.735 65.9546 168.932 62.0946C168.411 61.564 167.79 61.1426 167.105 60.8549C166.419 60.5671 165.684 60.4189 164.94 60.4189C164.197 60.4189 163.461 60.5671 162.776 60.8549C162.091 61.1426 161.47 61.564 160.949 62.0946C157.146 65.9546 145.913 75.2996 123.839 78.5637C122.27 78.7983 120.837 79.5846 119.797 80.7811C118.756 81.9777 118.177 83.5061 118.162 85.0917C118.162 91.57 118.716 108.365 124.477 124.43C131.779 144.766 144.544 157.07 162.418 160.916C164.055 161.263 165.747 161.263 167.385 160.916C185.259 157.042 198.024 144.766 205.325 124.43C211.165 108.365 211.74 91.57 211.719 85.0917Z" fill="#333333"/>
<path d="M166.865 158.114C165.625 158.388 164.339 158.388 163.098 158.114C123.539 149.542 121.049 98.6237 121.098 85.1065C121.099 84.2071 121.422 83.3378 122.009 82.6567C122.597 81.9756 123.409 81.528 124.299 81.3954C147.005 78.0392 158.741 68.46 163.034 64.1033C163.288 63.8428 163.591 63.6358 163.926 63.4944C164.261 63.3531 164.621 63.2803 164.985 63.2803C165.349 63.2803 165.709 63.3531 166.044 63.4944C166.379 63.6358 166.683 63.8428 166.936 64.1033C171.194 68.46 182.951 78.0392 205.665 81.3954C206.555 81.5279 207.368 81.9752 207.956 82.6561C208.545 83.3371 208.87 84.2065 208.872 85.1065C208.9 98.6237 206.41 149.542 166.865 158.114Z" fill="#1B97FF"/>
<path d="M166.864 158.114C166.244 158.25 165.611 158.319 164.977 158.32V63.2803C165.342 63.279 165.703 63.3511 166.04 63.4926C166.376 63.634 166.681 63.8417 166.935 64.1034C171.192 68.4601 182.95 78.0393 205.663 81.3955C206.553 81.528 207.367 81.9753 207.955 82.6562C208.544 83.3372 208.868 84.2066 208.87 85.1066C208.899 98.6238 206.408 149.542 166.864 158.114Z" fill="#30C5FF"/>
<path d="M164.969 64.7131C165.319 64.715 165.653 64.8554 165.899 65.1033C170.007 69.2756 182.084 79.3586 205.443 82.8425C205.991 82.9282 206.491 83.2056 206.853 83.6253C207.216 84.0451 207.418 84.5798 207.423 85.1344C207.423 91.3857 206.891 107.585 201.356 123.011C194.587 141.85 182.907 153.203 166.552 156.744C165.509 156.971 164.43 156.971 163.387 156.744C147.067 153.196 135.345 141.843 128.576 123.011C123.041 107.585 122.495 91.3857 122.516 85.1344C122.518 84.579 122.719 84.0427 123.082 83.6224C123.445 83.2021 123.947 82.9255 124.496 82.8425C147.855 79.3869 159.932 69.304 164.04 65.1033C164.161 64.9799 164.306 64.8819 164.466 64.8149C164.625 64.7479 164.796 64.7133 164.969 64.7131ZM164.969 63.2939C164.606 63.2936 164.246 63.3662 163.91 63.5076C163.575 63.649 163.272 63.8562 163.018 64.117C158.725 68.4738 146.996 78.0529 124.283 81.4092C123.393 81.5418 122.581 81.9894 121.994 82.6705C121.406 83.3516 121.083 84.2209 121.083 85.1202C121.033 98.602 123.524 149.556 163.082 158.128C164.323 158.402 165.609 158.402 166.85 158.128C206.408 149.556 208.899 98.6375 208.849 85.1202C208.85 84.2205 208.527 83.3504 207.94 82.669C207.352 81.9876 206.539 81.5404 205.649 81.4092C182.943 78.0529 171.207 68.4738 166.914 64.117C166.661 63.8571 166.359 63.6503 166.025 63.509C165.691 63.3676 165.332 63.2945 164.969 63.2939Z" fill="#1B97FF"/>
<path d="M267.445 38.3173V38.9204C267.445 39.6732 267.146 40.3951 266.614 40.9274C266.081 41.4597 265.359 41.7587 264.607 41.7587H244.256C243.503 41.7587 242.782 42.0577 242.249 42.59C241.717 43.1223 241.418 43.8442 241.418 44.597V71.9295C241.42 72.7714 241.756 73.5781 242.352 74.1727C242.947 74.7673 243.755 75.1013 244.597 75.1013H285.752C286.504 75.1013 287.226 74.8022 287.759 74.27C288.291 73.7377 288.59 73.0158 288.59 72.263V38.3173C288.59 37.5338 288.279 36.7822 287.726 36.2275C287.172 35.6728 286.422 35.3603 285.638 35.3584H270.404C269.619 35.3584 268.866 35.6701 268.312 36.225C267.757 36.7799 267.445 37.5325 267.445 38.3173Z" fill="#61D3FF"/>
<path d="M285.491 75.0934H246.72L239.114 45.7457C239.062 45.5452 239.056 45.3356 239.098 45.1327C239.14 44.9299 239.227 44.7393 239.354 44.5755C239.481 44.4118 239.643 44.2792 239.829 44.1881C240.015 44.097 240.219 44.0497 240.426 44.0498H275.075C275.755 44.0515 276.416 44.2788 276.954 44.696C277.492 45.1132 277.877 45.697 278.048 46.3559L285.491 75.0934Z" fill="#DEF6FF"/>
<path d="M282.873 75.0947H244.35L237.368 48.1311C237.32 47.9477 237.315 47.7559 237.353 47.5703C237.391 47.3847 237.471 47.2102 237.587 47.0603C237.703 46.9103 237.851 46.7888 238.021 46.705C238.191 46.6213 238.378 46.5776 238.567 46.5771H273.336C273.961 46.5823 274.567 46.7938 275.06 47.1787C275.553 47.5636 275.904 48.1005 276.061 48.7059L282.873 75.0947Z" fill="white"/>
<path d="M281.68 72.3276L281.453 71.4619L276.762 53.4602C276.547 52.6326 276.063 51.9 275.386 51.3773C274.709 50.8546 273.878 50.5714 273.023 50.5723H237.332C237.049 50.5711 236.769 50.6353 236.515 50.76C236.261 50.8847 236.039 51.0664 235.866 51.291C235.694 51.5156 235.576 51.777 235.521 52.0549C235.466 52.3327 235.476 52.6194 235.551 52.8926L240.518 71.8806C240.758 72.8076 241.3 73.6284 242.058 74.2141C242.816 74.7997 243.747 75.1171 244.704 75.1162H285.511C284.654 75.1411 283.813 74.8807 283.12 74.3761C282.426 73.8714 281.92 73.151 281.68 72.3276Z" fill="#BEEAFC"/>
<path d="M263.736 61.1724H263.573V59.3843C263.573 57.9728 263.012 56.6192 262.014 55.6212C261.016 54.6232 259.663 54.0625 258.251 54.0625C256.84 54.0625 255.486 54.6232 254.488 55.6212C253.49 56.6192 252.93 57.9728 252.93 59.3843V61.1724C252.534 61.1724 252.155 61.3294 251.876 61.6088C251.596 61.8883 251.439 62.2673 251.439 62.6625V69.3963C251.439 69.7915 251.596 70.1705 251.876 70.4499C252.155 70.7294 252.534 70.8864 252.93 70.8864H263.758C263.954 70.8873 264.148 70.8494 264.33 70.775C264.512 70.7005 264.677 70.5909 264.816 70.4524C264.955 70.314 265.065 70.1494 265.141 69.9681C265.216 69.7869 265.255 69.5925 265.255 69.3963V62.6625C265.255 62.4644 265.215 62.2683 265.139 62.0856C265.062 61.9029 264.95 61.7374 264.808 61.5986C264.667 61.4599 264.499 61.3507 264.315 61.2775C264.131 61.2044 263.934 61.1686 263.736 61.1724ZM254.292 59.3843C254.335 58.3604 254.772 57.3928 255.512 56.6837C256.252 55.9745 257.237 55.5786 258.262 55.5786C259.287 55.5786 260.272 55.9745 261.012 56.6837C261.751 57.3928 262.189 58.3604 262.232 59.3843V61.1724H254.292V59.3843Z" fill="white"/>
<path d="M260.072 64.6286C260.071 64.3256 259.99 64.0282 259.838 63.7662C259.687 63.5041 259.468 63.2865 259.206 63.1351C258.944 62.9836 258.646 62.9037 258.343 62.9033C258.04 62.9029 257.742 62.982 257.48 63.1327C257.217 63.2834 256.998 63.5004 256.845 63.7621C256.693 64.0237 256.611 64.3209 256.609 64.6239C256.608 64.9268 256.685 65.225 256.835 65.4885C256.984 65.7521 257.2 65.9718 257.461 66.1258C257.523 66.1572 257.573 66.2086 257.602 66.2715C257.632 66.3345 257.639 66.4056 257.624 66.4735L257.319 67.5875C257.275 67.7426 257.268 67.9056 257.298 68.0639C257.328 68.2222 257.394 68.3714 257.491 68.4999C257.589 68.6283 257.714 68.7324 257.859 68.8042C258.003 68.8759 258.162 68.9132 258.323 68.9132C258.484 68.9132 258.643 68.8759 258.787 68.8042C258.932 68.7324 259.057 68.6283 259.154 68.4999C259.252 68.3714 259.318 68.2222 259.348 68.0639C259.378 67.9056 259.371 67.7426 259.327 67.5875L259.029 66.4876C259.014 66.4188 259.022 66.3471 259.052 66.2832C259.081 66.2192 259.13 66.1665 259.192 66.1329C259.46 65.984 259.683 65.7659 259.838 65.5012C259.993 65.2366 260.074 64.9352 260.072 64.6286Z" fill="#BEEAFC"/>
<path d="M290.926 190.293C287.701 190.29 284.535 191.16 281.765 192.812C281.201 187.943 278.798 183.473 275.047 180.316C271.296 177.16 266.481 175.556 261.587 175.832C256.692 176.109 252.089 178.245 248.717 181.803C245.345 185.362 243.461 190.074 243.449 194.976C243.448 195.688 243.489 196.398 243.569 197.105C242.671 196.937 241.759 196.851 240.845 196.85C237.008 196.934 233.356 198.517 230.673 201.261C227.989 204.004 226.486 207.689 226.486 211.527C226.486 215.365 227.989 219.05 230.673 221.793C233.356 224.537 237.008 226.12 240.845 226.205H290.926C295.622 226.111 300.095 224.18 303.384 220.825C306.672 217.471 308.514 212.961 308.514 208.263C308.514 203.566 306.672 199.055 303.384 195.701C300.095 192.346 295.622 190.415 290.926 190.322V190.293Z" fill="white"/>
<path d="M274.279 201.058H274.073V198.83C274.073 197.07 273.374 195.383 272.13 194.139C270.885 192.894 269.198 192.195 267.438 192.195C265.679 192.195 263.991 192.894 262.747 194.139C261.503 195.383 260.804 197.07 260.804 198.83V201.058H260.761C260.268 201.058 259.795 201.254 259.447 201.602C259.098 201.951 258.902 202.424 258.902 202.917V211.318C258.902 211.811 259.098 212.284 259.447 212.633C259.795 212.981 260.268 213.177 260.761 213.177H274.243C274.736 213.177 275.209 212.981 275.558 212.633C275.906 212.284 276.102 211.811 276.102 211.318V202.917C276.102 202.43 275.911 201.962 275.57 201.615C275.229 201.267 274.766 201.067 274.279 201.058ZM262.486 198.83C262.486 197.512 263.009 196.249 263.94 195.318C264.872 194.386 266.135 193.863 267.453 193.863C268.77 193.863 270.033 194.386 270.965 195.318C271.896 196.249 272.42 197.512 272.42 198.83V201.058H262.486V198.83Z" fill="#61D3FF"/>
<path d="M269.705 205.371C269.706 204.992 269.606 204.619 269.417 204.29C269.228 203.961 268.955 203.688 268.627 203.497C268.299 203.307 267.926 203.206 267.547 203.205C267.168 203.204 266.794 203.303 266.465 203.491C266.136 203.68 265.862 203.952 265.671 204.28C265.48 204.608 265.379 204.98 265.377 205.36C265.375 205.739 265.473 206.112 265.661 206.442C265.849 206.771 266.121 207.046 266.448 207.237C266.526 207.276 266.587 207.341 266.623 207.419C266.659 207.498 266.668 207.586 266.647 207.67L266.271 209.089C266.221 209.281 266.215 209.483 266.254 209.677C266.294 209.872 266.377 210.055 266.499 210.212C266.62 210.369 266.776 210.497 266.954 210.584C267.132 210.672 267.328 210.718 267.527 210.718C267.726 210.718 267.922 210.672 268.1 210.584C268.278 210.497 268.434 210.369 268.555 210.212C268.676 210.055 268.76 209.872 268.8 209.677C268.839 209.483 268.833 209.281 268.783 209.089L268.407 207.713C268.385 207.628 268.394 207.538 268.432 207.459C268.469 207.38 268.533 207.317 268.613 207.28C268.951 207.091 269.232 206.814 269.425 206.478C269.617 206.141 269.714 205.759 269.705 205.371Z" fill="white"/>
<path d="M275.345 216.092H259.734C259.523 216.092 259.321 216.008 259.172 215.859C259.023 215.71 258.939 215.508 258.939 215.297C258.939 215.086 259.023 214.883 259.172 214.732C259.321 214.582 259.523 214.497 259.734 214.495H275.345C275.556 214.497 275.758 214.582 275.907 214.732C276.056 214.883 276.139 215.086 276.139 215.297C276.139 215.508 276.056 215.71 275.907 215.859C275.758 216.008 275.555 216.092 275.345 216.092Z" fill="#61D3FF"/>
<path d="M275.345 218.831H259.734C259.523 218.829 259.321 218.744 259.172 218.594C259.023 218.443 258.939 218.241 258.939 218.029C258.939 217.818 259.023 217.616 259.172 217.467C259.321 217.318 259.523 217.234 259.734 217.234H275.345C275.555 217.234 275.758 217.318 275.907 217.467C276.056 217.616 276.139 217.818 276.139 218.029C276.139 218.241 276.056 218.443 275.907 218.594C275.758 218.744 275.556 218.829 275.345 218.831Z" fill="#61D3FF"/>
<path d="M39.1445 226.175H302.749" stroke="#457CDD" stroke-miterlimit="10" stroke-linecap="round"/>
<path d="M304.465 226.175H312.859" stroke="#457CDD" stroke-miterlimit="10" stroke-linecap="round"/>
<path d="M223.098 50.4796C221.34 50.1374 219.517 50.4329 217.956 51.3133C216.396 52.1936 215.2 53.6011 214.584 55.2834C214.529 55.4402 214.427 55.5765 214.293 55.6741C214.159 55.7718 213.998 55.826 213.832 55.8297H190.281C190.202 55.8297 190.126 55.8611 190.07 55.917C190.014 55.9729 189.983 56.0487 189.983 56.1277V59.6401C189.983 59.7191 190.014 59.7949 190.07 59.8508C190.126 59.9067 190.202 59.9381 190.281 59.9381H191.416C191.537 59.9381 191.652 59.986 191.737 60.0711C191.823 60.1563 191.87 60.2718 191.87 60.3923V62.1165C191.87 62.1805 191.845 62.2418 191.8 62.2871C191.755 62.3323 191.693 62.3577 191.629 62.3577H190.21C190.147 62.3577 190.087 62.3822 190.042 62.4259C189.997 62.4696 189.971 62.5292 189.969 62.5919V63.4647C189.969 63.5287 189.994 63.59 190.039 63.6353C190.085 63.6805 190.146 63.7059 190.21 63.7059H196.241C196.273 63.7059 196.304 63.6997 196.334 63.6876C196.363 63.6754 196.39 63.6577 196.412 63.6353C196.434 63.6129 196.452 63.5863 196.464 63.557C196.476 63.5277 196.483 63.4964 196.483 63.4647V62.5919C196.481 62.5292 196.455 62.4696 196.409 62.4259C196.364 62.3822 196.304 62.3577 196.241 62.3577H194.822C194.758 62.3577 194.697 62.3323 194.652 62.2871C194.606 62.2418 194.581 62.1805 194.581 62.1165V60.4277C194.581 60.3073 194.629 60.1918 194.714 60.1066C194.799 60.0214 194.915 59.9736 195.035 59.9736H197.008C197.128 59.9736 197.244 60.0214 197.329 60.1066C197.414 60.1918 197.462 60.3073 197.462 60.4277V63.5073C197.464 63.5594 197.485 63.6089 197.522 63.6458C197.559 63.6827 197.608 63.7042 197.66 63.7059H200.939C200.991 63.7059 201.042 63.685 201.079 63.6477C201.116 63.6105 201.137 63.5599 201.137 63.5073V60.4277C201.137 60.3073 201.185 60.1918 201.27 60.1066C201.356 60.0214 201.471 59.9736 201.591 59.9736H213.803C213.969 59.9773 214.13 60.0316 214.265 60.1292C214.399 60.2268 214.5 60.3632 214.555 60.52C215.011 61.754 215.781 62.8474 216.79 63.6913C217.799 64.5352 219.012 65.1002 220.307 65.3303C221.602 65.5603 222.935 65.4473 224.173 65.0024C225.411 64.5576 226.511 63.7965 227.363 62.7947C228.216 61.793 228.791 60.5855 229.033 59.2924C229.274 57.9992 229.172 56.6655 228.738 55.4237C228.304 54.182 227.552 53.0755 226.558 52.2144C225.564 51.3532 224.361 50.7674 223.07 50.5151L223.098 50.4796ZM221.679 61.4282C220.978 61.4282 220.292 61.2201 219.708 60.8303C219.125 60.4405 218.67 59.8864 218.402 59.2381C218.133 58.5898 218.063 57.8764 218.2 57.1882C218.337 56.5 218.674 55.8678 219.171 55.3717C219.667 54.8755 220.299 54.5376 220.987 54.4007C221.675 54.2638 222.389 54.3341 223.037 54.6026C223.685 54.8711 224.239 55.3259 224.629 55.9093C225.019 56.4927 225.227 57.1787 225.227 57.8804C225.222 58.8176 224.845 59.7146 224.181 60.3753C223.516 61.0361 222.617 61.4069 221.679 61.4069V61.4282Z" fill="#71B8FF"/>
<path d="M253.785 141.113H254.495" stroke="#457CDD" stroke-linecap="round" stroke-linejoin="round"/>
<path d="M256.619 141.113H265.134C265.444 141.113 265.751 141.174 266.037 141.293C266.323 141.412 266.583 141.586 266.802 141.806C267.021 142.025 267.194 142.286 267.312 142.572C267.43 142.859 267.491 143.166 267.49 143.476V172.568" stroke="#457CDD" stroke-linecap="round" stroke-linejoin="round" stroke-dasharray="1.99 2.99"/>
<path d="M267.52 173.64V174.349" stroke="#457CDD" stroke-linecap="round" stroke-linejoin="round"/>
<path d="M268.691 155.631H269.401" stroke="#457CDD" stroke-linecap="round" stroke-linejoin="round"/>
<path d="M271.549 155.63H291.857C292.463 155.63 293.044 155.389 293.472 154.961C293.901 154.532 294.141 153.951 294.141 153.345V59.9875C294.141 59.5472 293.967 59.1248 293.655 58.8135C293.344 58.5021 292.921 58.3271 292.481 58.3271H291.772" stroke="#457CDD" stroke-linecap="round" stroke-linejoin="round" stroke-dasharray="2.02 3.03"/>
<path d="M290.684 58.292H289.975" stroke="#457CDD" stroke-linecap="round" stroke-linejoin="round"/>
<path d="M221.682 66.9199V67.6295" stroke="#457CDD" stroke-linecap="round" stroke-linejoin="round"/>
<path d="M221.68 69.7656V82.2043C221.68 82.8028 221.442 83.3767 221.019 83.7999C220.596 84.223 220.022 84.4608 219.424 84.4608H215.053" stroke="#457CDD" stroke-linecap="round" stroke-linejoin="round" stroke-dasharray="2.01 3.02"/>
<path d="M213.983 84.4609H213.273" stroke="#457CDD" stroke-linecap="round" stroke-linejoin="round"/>
<path d="M132.252 260.796V263.414C132.252 264.225 132.574 265.003 133.148 265.577C133.721 266.15 134.499 266.472 135.31 266.472H264.38C265.192 266.472 265.969 266.15 266.543 265.577C267.117 265.003 267.439 264.225 267.439 263.414V229.88" stroke="#457CDD" stroke-linecap="round" stroke-linejoin="round" stroke-dasharray="2 3"/>
<path d="M164.026 161.875V157.582C164.024 157.352 163.931 157.132 163.768 156.97C163.605 156.808 163.385 156.718 163.155 156.718H162.108C161.942 156.708 161.784 156.644 161.657 156.537C161.53 156.429 161.442 156.283 161.406 156.12C161.019 154.435 160.357 152.826 159.446 151.356C159.352 151.212 159.311 151.039 159.329 150.868C159.346 150.697 159.423 150.536 159.544 150.415L160.247 149.712C160.328 149.631 160.393 149.535 160.437 149.428C160.481 149.322 160.504 149.209 160.504 149.094C160.504 148.979 160.481 148.865 160.437 148.759C160.393 148.653 160.328 148.556 160.247 148.475L157.212 145.44C157.049 145.277 156.828 145.186 156.598 145.186C156.367 145.186 156.146 145.277 155.983 145.44L155.281 146.177C155.159 146.299 154.999 146.376 154.828 146.393C154.656 146.411 154.484 146.37 154.34 146.276C152.87 145.365 151.261 144.701 149.577 144.308C149.409 144.272 149.258 144.178 149.149 144.044C149.041 143.91 148.981 143.743 148.98 143.57V142.531C148.981 142.416 148.959 142.302 148.916 142.196C148.872 142.09 148.808 141.993 148.727 141.912C148.646 141.831 148.55 141.767 148.444 141.724C148.338 141.68 148.224 141.658 148.109 141.659H143.818C143.587 141.659 143.365 141.751 143.202 141.914C143.038 142.078 142.947 142.299 142.947 142.531V143.57C142.947 143.742 142.889 143.909 142.782 144.044C142.675 144.178 142.524 144.271 142.357 144.308C140.671 144.696 139.062 145.361 137.594 146.276C137.45 146.37 137.278 146.411 137.106 146.393C136.935 146.376 136.775 146.299 136.653 146.177L135.951 145.44C135.787 145.277 135.566 145.186 135.336 145.186C135.106 145.186 134.885 145.277 134.721 145.44L131.617 148.447C131.456 148.612 131.365 148.834 131.365 149.065C131.365 149.297 131.456 149.518 131.617 149.684L132.319 150.386C132.441 150.508 132.517 150.668 132.535 150.84C132.553 151.011 132.512 151.184 132.418 151.328C131.508 152.799 130.843 154.408 130.451 156.092C130.416 156.255 130.328 156.402 130.201 156.51C130.074 156.618 129.915 156.681 129.748 156.689H128.709C128.595 156.689 128.482 156.71 128.376 156.753C128.27 156.796 128.174 156.86 128.093 156.94C128.012 157.02 127.948 157.116 127.904 157.221C127.861 157.327 127.838 157.44 127.838 157.554V161.847C127.837 161.962 127.859 162.076 127.902 162.182C127.946 162.288 128.01 162.384 128.091 162.465C128.172 162.546 128.268 162.611 128.374 162.654C128.481 162.697 128.594 162.719 128.709 162.718H129.748C129.915 162.727 130.074 162.79 130.201 162.898C130.328 163.006 130.416 163.153 130.451 163.316C130.843 165 131.508 166.609 132.418 168.08C132.512 168.224 132.553 168.397 132.535 168.568C132.517 168.74 132.441 168.9 132.319 169.021L131.617 169.724C131.454 169.887 131.363 170.109 131.363 170.339C131.363 170.569 131.454 170.791 131.617 170.954L134.651 173.996C134.814 174.159 135.035 174.25 135.266 174.25C135.496 174.25 135.717 174.159 135.88 173.996L136.583 173.294C136.705 173.172 136.865 173.096 137.036 173.078C137.207 173.06 137.38 173.101 137.524 173.195C138.994 174.105 140.603 174.767 142.286 175.156C142.454 175.194 142.603 175.288 142.71 175.422C142.817 175.556 142.876 175.722 142.876 175.894V176.976C142.876 177.09 142.899 177.204 142.943 177.309C142.986 177.415 143.051 177.511 143.131 177.592C143.212 177.673 143.308 177.737 143.414 177.781C143.52 177.825 143.633 177.847 143.747 177.847H148.039C148.154 177.848 148.267 177.826 148.373 177.783C148.48 177.739 148.576 177.675 148.657 177.594C148.738 177.513 148.802 177.416 148.846 177.31C148.889 177.204 148.911 177.09 148.91 176.976V175.929C148.911 175.756 148.97 175.589 149.079 175.455C149.188 175.321 149.339 175.228 149.507 175.191C151.188 174.801 152.795 174.139 154.262 173.231C154.407 173.137 154.579 173.095 154.75 173.113C154.922 173.131 155.082 173.207 155.204 173.329L155.906 174.032C156.069 174.194 156.29 174.286 156.521 174.286C156.751 174.286 156.972 174.194 157.135 174.032L160.17 170.996C160.251 170.915 160.316 170.819 160.36 170.713C160.404 170.606 160.427 170.493 160.427 170.378C160.427 170.263 160.404 170.149 160.36 170.043C160.316 169.937 160.251 169.84 160.17 169.759L159.467 169.057C159.346 168.933 159.27 168.772 159.252 168.599C159.235 168.427 159.276 168.254 159.369 168.108C160.281 166.642 160.943 165.034 161.329 163.351C161.365 163.188 161.453 163.042 161.58 162.935C161.707 162.827 161.865 162.763 162.031 162.754H163.077C163.199 162.764 163.321 162.75 163.436 162.71C163.552 162.671 163.657 162.608 163.747 162.525C163.836 162.442 163.907 162.342 163.955 162.23C164.003 162.118 164.027 161.997 164.026 161.875ZM144.913 168.902C143.143 168.707 141.467 168.003 140.088 166.875C138.709 165.748 137.686 164.245 137.143 162.548C136.599 160.852 136.558 159.034 137.024 157.315C137.491 155.595 138.445 154.048 139.772 152.859C141.098 151.67 142.741 150.891 144.5 150.616C146.26 150.341 148.061 150.581 149.687 151.308C151.313 152.035 152.694 153.217 153.663 154.712C154.632 156.207 155.147 157.95 155.147 159.732C155.144 161.028 154.868 162.309 154.338 163.491C153.808 164.674 153.036 165.732 152.071 166.596C151.106 167.461 149.97 168.113 148.737 168.51C147.504 168.907 146.201 169.041 144.913 168.902Z" fill="#30C5FF"/>
<path d="M299.292 97.14C300.687 97.14 301.818 96.0091 301.818 94.6139C301.818 93.2188 300.687 92.0879 299.292 92.0879C297.897 92.0879 296.766 93.2188 296.766 94.6139C296.766 96.0091 297.897 97.14 299.292 97.14Z" stroke="white" stroke-width="1.24" stroke-miterlimit="10" stroke-linecap="round"/>
<path d="M312.156 94.6139C312.156 95.1136 312.007 95.6019 311.73 96.0174C311.452 96.4328 311.058 96.7565 310.596 96.9477C310.135 97.1389 309.627 97.1889 309.137 97.0915C308.647 96.994 308.197 96.7534 307.843 96.4001C307.49 96.0469 307.25 95.5968 307.152 95.1068C307.055 94.6167 307.105 94.1088 307.296 93.6473C307.487 93.1857 307.811 92.7912 308.226 92.5136C308.642 92.236 309.13 92.0879 309.63 92.0879C310.3 92.0879 310.942 92.354 311.416 92.8278C311.89 93.3015 312.156 93.944 312.156 94.6139V94.6139Z" stroke="white" stroke-width="1.24" stroke-miterlimit="10" stroke-linecap="round"/>
<path d="M275.106 147.436H271.054C270.796 147.436 270.586 147.645 270.586 147.904V151.955C270.586 152.214 270.796 152.424 271.054 152.424H275.106C275.365 152.424 275.574 152.214 275.574 151.955V147.904C275.574 147.645 275.365 147.436 275.106 147.436Z" fill="white"/>
<path d="M281.772 147.436H277.72C277.462 147.436 277.252 147.645 277.252 147.904V151.955C277.252 152.214 277.462 152.424 277.72 152.424H281.772C282.031 152.424 282.24 152.214 282.24 151.955V147.904C282.24 147.645 282.031 147.436 281.772 147.436Z" fill="white"/>
<path d="M288.446 147.436H284.394C284.135 147.436 283.926 147.645 283.926 147.904V151.955C283.926 152.214 284.135 152.424 284.394 152.424H288.446C288.704 152.424 288.914 152.214 288.914 151.955V147.904C288.914 147.645 288.704 147.436 288.446 147.436Z" fill="white"/>
<path d="M130.1 211.402H126.048C125.79 211.402 125.58 211.612 125.58 211.871V215.922C125.58 216.181 125.79 216.391 126.048 216.391H130.1C130.359 216.391 130.568 216.181 130.568 215.922V211.871C130.568 211.612 130.359 211.402 130.1 211.402Z" fill="white"/>
<path d="M136.772 211.402H132.72C132.462 211.402 132.252 211.612 132.252 211.871V215.922C132.252 216.181 132.462 216.391 132.72 216.391H136.772C137.031 216.391 137.24 216.181 137.24 215.922V211.871C137.24 211.612 137.031 211.402 136.772 211.402Z" fill="white"/>
<path d="M143.44 211.402H139.388C139.13 211.402 138.92 211.612 138.92 211.871V215.922C138.92 216.181 139.13 216.391 139.388 216.391H143.44C143.699 216.391 143.908 216.181 143.908 215.922V211.871C143.908 211.612 143.699 211.402 143.44 211.402Z" fill="white"/>
<path d="M122.737 62.2227H118.685C118.426 62.2227 118.217 62.4323 118.217 62.691V66.7426C118.217 67.0013 118.426 67.2109 118.685 67.2109H122.737C122.995 67.2109 123.205 67.0013 123.205 66.7426V62.691C123.205 62.4323 122.995 62.2227 122.737 62.2227Z" fill="white"/>
<path d="M129.409 62.2227H125.357C125.098 62.2227 124.889 62.4323 124.889 62.691V66.7426C124.889 67.0013 125.098 67.2109 125.357 67.2109H129.409C129.667 67.2109 129.877 67.0013 129.877 66.7426V62.691C129.877 62.4323 129.667 62.2227 129.409 62.2227Z" fill="white"/>
<path d="M136.077 62.2227H132.025C131.766 62.2227 131.557 62.4323 131.557 62.691V66.7426C131.557 67.0013 131.766 67.2109 132.025 67.2109H136.077C136.335 67.2109 136.545 67.0013 136.545 66.7426V62.691C136.545 62.4323 136.335 62.2227 136.077 62.2227Z" fill="white"/>
<path d="M275.106 26.6299H271.054C270.796 26.6299 270.586 26.8396 270.586 27.0982V31.1498C270.586 31.4085 270.796 31.6181 271.054 31.6181H275.106C275.365 31.6181 275.574 31.4085 275.574 31.1498V27.0982C275.574 26.8396 275.365 26.6299 275.106 26.6299Z" fill="white"/>
<path d="M281.772 26.6299H277.72C277.462 26.6299 277.252 26.8396 277.252 27.0982V31.1498C277.252 31.4085 277.462 31.6181 277.72 31.6181H281.772C282.031 31.6181 282.24 31.4085 282.24 31.1498V27.0982C282.24 26.8396 282.031 26.6299 281.772 26.6299Z" fill="white"/>
<path d="M288.446 26.6299H284.394C284.135 26.6299 283.926 26.8396 283.926 27.0982V31.1498C283.926 31.4085 284.135 31.6181 284.394 31.6181H288.446C288.704 31.6181 288.914 31.4085 288.914 31.1498V27.0982C288.914 26.8396 288.704 26.6299 288.446 26.6299Z" fill="white"/>
<path d="M299.191 179.861C299.191 180.361 299.043 180.849 298.765 181.264C298.487 181.68 298.093 182.004 297.631 182.195C297.17 182.386 296.662 182.436 296.172 182.339C295.682 182.241 295.232 182 294.879 181.647C294.525 181.294 294.285 180.844 294.187 180.354C294.09 179.864 294.14 179.356 294.331 178.894C294.522 178.433 294.846 178.038 295.261 177.761C295.677 177.483 296.165 177.335 296.665 177.335C297.335 177.335 297.977 177.601 298.451 178.075C298.925 178.549 299.191 179.191 299.191 179.861Z" fill="white"/>
<path d="M235.487 26.6382C235.487 26.9052 235.408 27.1661 235.26 27.388C235.111 27.6098 234.9 27.7826 234.653 27.8845C234.407 27.9863 234.135 28.0126 233.874 27.96C233.612 27.9074 233.372 27.7783 233.183 27.589C232.995 27.3997 232.867 27.1589 232.816 26.8969C232.765 26.6349 232.793 26.3636 232.896 26.1174C232.999 25.8712 233.173 25.6611 233.395 25.5138C233.618 25.3665 233.879 25.2887 234.146 25.2901C234.323 25.2901 234.498 25.325 234.661 25.3928C234.824 25.4607 234.972 25.5601 235.097 25.6854C235.222 25.8106 235.32 25.9593 235.387 26.1228C235.454 26.2864 235.488 26.4615 235.487 26.6382Z" fill="white"/>
<path d="M277.406 130.853H282.082" stroke="#A7CBE8" stroke-width="2.47" stroke-miterlimit="10" stroke-linecap="round"/>
<path d="M279.746 128.512V133.195" stroke="#A7CBE8" stroke-width="2.47" stroke-miterlimit="10" stroke-linecap="round"/>
<path d="M111.021 215.326H115.698" stroke="white" stroke-width="2.47" stroke-miterlimit="10" stroke-linecap="round"/>
<path d="M113.357 212.984V217.66" stroke="white" stroke-width="2.47" stroke-miterlimit="10" stroke-linecap="round"/>
<path d="M197.314 37.7002H201.991" stroke="white" stroke-width="2.47" stroke-miterlimit="10" stroke-linecap="round"/>
<path d="M199.646 35.3584V40.0415" stroke="white" stroke-width="2.47" stroke-miterlimit="10" stroke-linecap="round"/>
<path d="M302.123 169.433H306.799" stroke="white" stroke-width="2.47" stroke-miterlimit="10" stroke-linecap="round"/>
<path d="M304.465 167.097V171.773" stroke="white" stroke-width="2.47" stroke-miterlimit="10" stroke-linecap="round"/>
<path d="M238.006 141.404C238.006 138.92 241.022 136.905 244.74 136.905C248.458 136.905 251.473 138.92 251.473 141.404C251.473 143.887 248.458 145.903 244.74 145.903C244.118 145.901 243.499 145.844 242.888 145.732C242.814 145.717 242.738 145.717 242.665 145.733C242.592 145.749 242.522 145.78 242.462 145.825L239.893 147.74C239.863 147.764 239.826 147.777 239.788 147.778C239.749 147.779 239.712 147.767 239.68 147.745C239.649 147.722 239.626 147.691 239.615 147.654C239.603 147.617 239.604 147.578 239.617 147.542L240.326 145.292C240.362 145.178 240.359 145.055 240.318 144.942C240.277 144.829 240.2 144.733 240.099 144.668C239.502 144.346 238.997 143.877 238.631 143.306C238.265 142.735 238.05 142.081 238.006 141.404Z" fill="#333333"/>
<path d="M247.111 141.412C247.11 141.537 247.146 141.66 247.215 141.765C247.284 141.87 247.382 141.952 247.498 142.001C247.614 142.049 247.741 142.062 247.864 142.038C247.987 142.014 248.101 141.954 248.189 141.865C248.278 141.776 248.338 141.663 248.363 141.54C248.387 141.417 248.374 141.289 248.325 141.174C248.276 141.058 248.194 140.959 248.089 140.891C247.984 140.822 247.861 140.786 247.736 140.787C247.57 140.787 247.411 140.853 247.294 140.97C247.177 141.087 247.111 141.246 247.111 141.412Z" fill="#ECF6FF"/>
<path d="M244.117 141.412C244.117 141.535 244.154 141.656 244.222 141.758C244.291 141.861 244.389 141.941 244.503 141.988C244.617 142.036 244.742 142.048 244.863 142.024C244.985 142 245.096 141.94 245.183 141.853C245.271 141.766 245.33 141.655 245.354 141.533C245.378 141.412 245.366 141.287 245.319 141.173C245.271 141.059 245.191 140.961 245.089 140.892C244.986 140.824 244.865 140.787 244.742 140.787C244.659 140.786 244.578 140.802 244.502 140.833C244.425 140.864 244.356 140.91 244.298 140.968C244.24 141.026 244.194 141.095 244.163 141.171C244.132 141.248 244.116 141.329 244.117 141.412Z" fill="#ECF6FF"/>
<path d="M241.115 141.412C241.114 141.537 241.15 141.66 241.219 141.765C241.288 141.87 241.386 141.952 241.502 142.001C241.617 142.049 241.745 142.062 241.868 142.038C241.991 142.014 242.105 141.954 242.193 141.865C242.282 141.776 242.342 141.663 242.366 141.54C242.391 141.417 242.377 141.289 242.329 141.174C242.28 141.058 242.198 140.959 242.093 140.891C241.988 140.822 241.865 140.786 241.74 140.787C241.574 140.787 241.415 140.853 241.298 140.97C241.181 141.087 241.115 141.246 241.115 141.412Z" fill="#ECF6FF"/>
<path d="M172.554 127.701C182.87 123.514 187.839 111.757 183.652 101.441C179.465 91.1248 167.708 86.156 157.392 90.3429C147.076 94.5297 142.107 106.287 146.294 116.603C150.481 126.919 162.238 131.888 172.554 127.701Z" fill="#333333"/>
<g style="mix-blend-mode:color-dodge">
<path d="M149.127 106.067C149.127 106.067 158.607 106.478 164.95 113.794C164.95 113.794 170.527 101.809 186.897 94.6357C186.897 94.6357 168.817 107.82 164.957 124.906C164.972 124.885 161.069 112.687 149.127 106.067Z" fill="white"/>
</g>
</svg>
