<svg width="158" height="137" viewBox="0 0 158 137" fill="none" xmlns="http://www.w3.org/2000/svg">
<g opacity="0.8">
<path opacity="0.8" d="M81.2569 46.3238C96.4715 46.3238 108.805 36.7492 108.805 24.9384C108.805 13.1275 96.4715 3.55292 81.2569 3.55292C66.0423 3.55292 53.7085 13.1275 53.7085 24.9384C53.7085 36.7492 66.0423 46.3238 81.2569 46.3238Z" fill="url(#paint0_linear)"/>
</g>
<path d="M81.2569 45.8489C96.1339 45.8489 108.194 36.4869 108.194 24.9384C108.194 13.3899 96.1339 4.02792 81.2569 4.02792C66.38 4.02792 54.3198 13.3899 54.3198 24.9384C54.3198 36.4869 66.38 45.8489 81.2569 45.8489Z" fill="#1B97FF"/>
<path opacity="0.1" d="M58.6744 27.2624C58.6744 15.714 70.7332 6.35193 85.6096 6.35193C90.2283 6.32645 94.801 7.27228 99.0321 9.1283C94.2978 5.92407 88.1038 3.97702 81.3248 3.97702C66.4484 3.97702 54.3877 13.339 54.3877 24.8875C54.3877 32.6418 59.8255 39.4102 67.9042 43.0216C62.2482 39.1878 58.6744 33.5502 58.6744 27.2624Z" fill="white"/>
<path opacity="0.2" d="M81.2572 33.3429L111.119 85.1724L140.981 137H81.2572H21.5332L51.3952 85.1724L81.2572 33.3429Z" fill="#1B97FF"/>
<g opacity="0.3">
<path opacity="0.3" d="M88.3426 106.724L90.6618 99.8271C91.4593 97.4253 91.4657 94.8304 90.6801 92.4247C89.8944 90.0191 88.3582 87.93 86.298 86.4654L86.3168 86.4541C85.4046 85.8106 84.4042 85.3027 83.3468 84.9462L83.3148 84.9349L83.2791 84.9236C82.2527 84.5757 81.1826 84.374 80.1002 84.3242C79.7174 84.3044 79.3338 84.3044 78.951 84.3242C78.2867 84.3591 77.6266 84.4505 76.9779 84.5975C76.7898 84.639 76.6017 84.6861 76.4305 84.737C76.2594 84.7879 76.0675 84.8426 75.8888 84.901C75.5314 85.0197 75.1797 85.1536 74.8355 85.3062C74.6624 85.3816 74.4913 85.4608 74.3239 85.5456C73.8177 85.7961 73.3304 86.0833 72.8661 86.4051C72.71 86.5125 72.5576 86.6237 72.4072 86.7368C70.5479 88.1537 69.1561 90.0973 68.412 92.316L64.7667 103.182C64.193 104.886 64.0205 106.7 64.2626 108.482C64.3003 108.756 64.3473 109.027 64.4018 109.297C64.4564 109.566 64.5241 109.832 64.5899 110.096C64.6407 110.271 64.6934 110.446 64.7517 110.62C64.8382 110.878 64.9398 111.136 65.0357 111.389C65.1053 111.556 65.1787 111.724 65.2558 111.89C65.4081 112.22 65.5774 112.542 65.7599 112.857C65.9423 113.172 66.1361 113.479 66.3543 113.777C66.5123 113.999 66.6797 114.218 66.8527 114.429C67.0859 114.712 67.3305 114.994 67.59 115.245C68.7135 116.38 70.0581 117.271 71.54 117.863L71.604 117.89C71.6836 117.748 71.7715 117.612 71.8673 117.481C72.4316 116.706 73.4135 116.161 74.3483 116.365C74.416 116.38 74.4837 116.401 74.5514 116.421C75.0254 116.589 75.4919 116.889 75.949 117.036C76.1153 117.111 76.2958 117.148 76.478 117.146C76.6603 117.144 76.8399 117.102 77.0042 117.023C77.9184 116.534 77.5798 114.994 78.3641 114.32C78.4007 114.289 78.439 114.26 78.4789 114.233C78.4678 114.219 78.4577 114.205 78.4488 114.19C79.0544 113.813 79.8934 114.063 80.5912 114.306C81.3436 114.572 82.3254 114.751 82.8483 114.135C83.2019 113.713 83.1756 113.07 83.5123 112.627C83.9035 112.118 84.6409 112.062 85.2785 112.152L85.3105 112.162C86.5331 112.667 87.8686 111.828 87.7745 110.507C87.6636 108.744 88.2166 107.084 88.3426 106.724Z" fill="url(#paint1_linear)"/>
</g>
<path d="M72.0799 116.9C72.6291 116.146 73.5714 115.618 74.4743 115.824C75.3772 116.029 76.233 116.891 77.0362 116.459C78.1346 115.871 77.3559 113.709 79.1391 113.549C79.5106 113.524 79.8827 113.589 80.2244 113.737C80.9768 114.044 82.1542 114.391 82.7336 113.7C83.074 113.292 83.0496 112.672 83.375 112.25C83.7512 111.76 84.4678 111.698 85.0791 111.792L85.1092 111.802C86.2886 112.29 87.5789 111.479 87.4867 110.205C87.3682 108.509 87.9062 106.91 88.0228 106.564L90.2574 99.9081C91.2079 97.055 90.9925 93.9409 89.6585 91.2464C88.3244 88.5519 85.9801 86.4962 83.138 85.5287C80.291 84.5775 77.184 84.7941 74.496 86.1312C71.8079 87.4683 69.7572 89.8172 68.7919 92.6647L65.2689 103.131C64.3533 105.884 64.5213 108.883 65.7386 111.516C66.956 114.149 69.1307 116.216 71.8184 117.296C71.8977 117.159 71.985 117.027 72.0799 116.9Z" fill="white"/>
<path opacity="0.2" d="M76.2445 92.8456C76.9208 92.8456 77.469 92.2962 77.469 91.6186C77.469 90.9409 76.9208 90.3915 76.2445 90.3915C75.5683 90.3915 75.02 90.9409 75.02 91.6186C75.02 92.2962 75.5683 92.8456 76.2445 92.8456Z" fill="black"/>
<path opacity="0.2" d="M83.2079 95.1922C83.8842 95.1922 84.4324 94.6429 84.4324 93.9652C84.4324 93.2875 83.8842 92.7382 83.2079 92.7382C82.5316 92.7382 81.9834 93.2875 81.9834 93.9652C81.9834 94.6429 82.5316 95.1922 83.2079 95.1922Z" fill="black"/>
<path d="M79.3295 97.8469C79.6529 96.884 79.3954 95.9281 78.7545 95.712C78.1135 95.4958 77.3318 96.1012 77.0084 97.0641C76.685 98.027 76.9424 98.9829 77.5834 99.199C78.2243 99.4152 79.0061 98.8098 79.3295 97.8469Z" fill="#E0E0E0"/>
<path d="M103.928 93.7296C104.942 93.7296 105.764 92.906 105.764 91.89C105.764 90.874 104.942 90.0504 103.928 90.0504C102.914 90.0504 102.092 90.874 102.092 91.89C102.092 92.906 102.914 93.7296 103.928 93.7296Z" fill="white"/>
<path d="M109.744 89.9166C110.251 89.9166 110.662 89.5048 110.662 88.9968C110.662 88.4888 110.251 88.077 109.744 88.077C109.237 88.077 108.826 88.4888 108.826 88.9968C108.826 89.5048 109.237 89.9166 109.744 89.9166Z" fill="white"/>
<g opacity="0.5">
<g opacity="0.3">
<path opacity="0.3" d="M90.7879 32.6493L93.1071 25.7526C93.9046 23.3509 93.9111 20.7559 93.1254 18.3503C92.3397 15.9446 90.8035 13.8555 88.7433 12.391L88.7621 12.3796C87.8499 11.7361 86.8495 11.2282 85.7921 10.8718L85.7601 10.8605L85.7244 10.8492C84.698 10.5013 83.6279 10.2995 82.5456 10.2498C82.1627 10.23 81.7791 10.23 81.3963 10.2498C80.732 10.2846 80.072 10.376 79.4232 10.5231C79.2351 10.5645 79.047 10.6117 78.8758 10.6626C78.7047 10.7134 78.5128 10.7681 78.3341 10.8265C77.9767 10.9453 77.625 11.0791 77.2808 11.2318C77.1077 11.3072 76.9366 11.3863 76.7692 11.4712C76.263 11.7216 75.7757 12.0089 75.3114 12.3306C75.1553 12.4381 75.0029 12.5493 74.8525 12.6624C72.9932 14.0792 71.6014 16.0228 70.8573 18.2415L67.212 29.1077C66.6383 30.8118 66.4658 32.6258 66.708 34.4078C66.7456 34.6811 66.7926 34.9526 66.8471 35.2221C66.9017 35.4916 66.9694 35.7574 67.0352 36.0213C67.086 36.1966 67.1387 36.3718 67.197 36.5452C67.2835 36.8035 67.3851 37.0617 67.481 37.3143C67.5506 37.482 67.624 37.6498 67.7011 37.8156C67.8534 38.1455 68.0227 38.4678 68.2052 38.7826C68.3876 39.0973 68.5814 39.4046 68.7996 39.7024C68.9576 39.9248 69.125 40.1434 69.298 40.3545C69.5313 40.6373 69.7758 40.9106 70.0354 41.1707C71.1588 42.3057 72.5034 43.1968 73.9854 43.7887L74.0493 43.8151C74.1289 43.6736 74.2168 43.5371 74.3126 43.4061C74.8769 42.6314 75.8588 42.0867 76.7936 42.2903C76.8613 42.3053 76.929 42.3261 76.9968 42.3468C77.4708 42.5146 77.9372 42.8142 78.3943 42.9613C78.5606 43.0361 78.7411 43.0737 78.9234 43.0714C79.1056 43.0692 79.2852 43.0271 79.4495 42.9481C80.3637 42.4599 80.0251 40.92 80.8094 40.2452C80.846 40.2141 80.8843 40.1851 80.9242 40.1585C80.9131 40.1448 80.903 40.1303 80.8941 40.1151C81.4998 39.7382 82.3387 39.9889 83.0365 40.232C83.7889 40.4978 84.7707 40.6768 85.2936 40.0605C85.6473 39.6383 85.6209 38.9955 85.9576 38.5526C86.3489 38.0437 87.0862 37.9872 87.7238 38.0776H87.7558C88.9784 38.5828 90.3139 37.744 90.2199 36.4227C90.1089 34.6698 90.6619 33.0093 90.7879 32.6493Z" fill="url(#paint2_linear)"/>
</g>
<path opacity="0.5" d="M74.5252 42.8255C75.0744 42.0716 76.0168 41.5439 76.9196 41.7493C77.8225 41.9548 78.6783 42.8161 79.4815 42.3845C80.5799 41.7964 79.8012 39.6345 81.5844 39.4743C81.956 39.4497 82.328 39.5143 82.6697 39.6628C83.4221 39.97 84.5995 40.3168 85.1789 39.6251C85.5193 39.218 85.4949 38.5978 85.8203 38.1756C86.1965 37.6856 86.9131 37.6234 87.5244 37.7176L87.5545 37.727C88.7339 38.2152 90.0242 37.4047 89.932 36.1306C89.8135 34.4342 90.3515 32.8359 90.4681 32.4891L92.7027 25.8337C93.6532 22.9806 93.4378 19.8664 92.1038 17.1719C90.7697 14.4775 88.4254 12.4218 85.5833 11.4542C82.7363 10.503 79.6294 10.7196 76.9413 12.0567C74.2532 13.3938 72.2025 15.7427 71.2373 18.5902L67.7142 29.0568C66.7986 31.8095 66.9666 34.8087 68.1839 37.4414C69.4013 40.0742 71.576 42.1417 74.2637 43.2214C74.3431 43.0844 74.4304 42.9522 74.5252 42.8255Z" fill="white"/>
<path opacity="0.2" d="M78.6898 18.7711C79.3661 18.7711 79.9143 18.2218 79.9143 17.5441C79.9143 16.8664 79.3661 16.3171 78.6898 16.3171C78.0136 16.3171 77.4653 16.8664 77.4653 17.5441C77.4653 18.2218 78.0136 18.7711 78.6898 18.7711Z" fill="black"/>
<path opacity="0.2" d="M85.6527 21.1178C86.329 21.1178 86.8772 20.5685 86.8772 19.8908C86.8772 19.2131 86.329 18.6638 85.6527 18.6638C84.9764 18.6638 84.4282 19.2131 84.4282 19.8908C84.4282 20.5685 84.9764 21.1178 85.6527 21.1178Z" fill="black"/>
</g>
<path opacity="0.1" d="M107.124 18.741C107.474 20.0953 107.65 21.4887 107.649 22.8877C107.649 34.4361 95.59 43.7981 80.7136 43.7981C68.5382 43.7906 58.2512 37.5216 54.9238 28.9192C57.3954 38.4885 68.2786 45.6943 81.3343 45.6943C96.2107 45.6943 108.271 36.3323 108.271 24.7838C108.268 22.7155 107.878 20.6662 107.124 18.741Z" fill="black"/>
<g opacity="0.8">
<path opacity="0.8" d="M81.2569 48.646C112.025 48.646 136.967 42.1135 136.967 34.0554C136.967 25.9972 112.025 19.4648 81.2569 19.4648C50.4891 19.4648 25.5469 25.9972 25.5469 34.0554C25.5469 42.1135 50.4891 48.646 81.2569 48.646Z" fill="url(#paint3_linear)"/>
</g>
<path d="M81.2571 19.9473C51.5042 19.9473 27.3828 26.2634 27.3828 34.0573H135.131C135.131 26.2634 111.01 19.9473 81.2571 19.9473Z" fill="white"/>
<path d="M81.2571 48.1653C111.01 48.1653 135.131 41.8492 135.131 34.0573H27.3828C27.3828 41.8492 51.5042 48.1653 81.2571 48.1653Z" fill="white"/>
<path opacity="0.05" d="M81.2571 48.1653C111.01 48.1653 135.131 41.8492 135.131 34.0573H27.3828C27.3828 41.8492 51.5042 48.1653 81.2571 48.1653Z" fill="black"/>
<path opacity="0.05" d="M103.731 30.3743H58.7834C56.9946 30.3743 55.5444 31.8274 55.5444 33.62V34.4908C55.5444 36.2833 56.9946 37.7365 58.7834 37.7365H103.731C105.52 37.7365 106.97 36.2833 106.97 34.4908V33.62C106.97 31.8274 105.52 30.3743 103.731 30.3743Z" fill="black"/>
<path opacity="0.5" d="M25.184 10.8963C25.0285 10.8283 24.9034 10.7056 24.8324 10.5513C24.7613 10.3971 24.7492 10.222 24.7984 10.0594C24.8063 10.0343 24.8113 10.0084 24.8134 9.98214C24.8182 9.90755 24.7988 9.8334 24.7582 9.77073C24.7175 9.70807 24.6577 9.66026 24.5877 9.63441C24.5177 9.60856 24.4413 9.60606 24.3698 9.62728C24.2982 9.6485 24.2355 9.69232 24.1908 9.75219C24.1757 9.77331 24.1631 9.79607 24.1532 9.82004C24.0857 9.97604 23.9632 10.1017 23.8092 10.1729C23.6552 10.2442 23.4803 10.2561 23.318 10.2064C23.2929 10.1987 23.2671 10.1937 23.2409 10.1914C23.1665 10.1865 23.0925 10.206 23.03 10.2467C22.9674 10.2875 22.9197 10.3474 22.8939 10.4175C22.8681 10.4876 22.8656 10.5643 22.8868 10.6359C22.908 10.7076 22.9517 10.7705 23.0115 10.8152C23.0322 10.8313 23.055 10.8446 23.0792 10.8548C23.2346 10.9228 23.3597 11.0455 23.4308 11.1998C23.5018 11.3541 23.5139 11.5291 23.4648 11.6917C23.457 11.7162 23.452 11.7415 23.4497 11.7671C23.4445 11.8418 23.4635 11.9163 23.504 11.9793C23.5445 12.0423 23.6043 12.0905 23.6744 12.1166C23.7445 12.1427 23.8212 12.1453 23.8929 12.1241C23.9646 12.1029 24.0276 12.059 24.0723 11.9989C24.0878 11.9774 24.1004 11.9539 24.1099 11.9292C24.1791 11.7749 24.3022 11.6514 24.4561 11.5819C24.61 11.5124 24.7839 11.5019 24.9451 11.5522C24.9702 11.5599 24.996 11.565 25.0222 11.5673C25.0966 11.5721 25.1706 11.5527 25.2332 11.5119C25.2957 11.4712 25.3434 11.4113 25.3692 11.3411C25.395 11.271 25.3975 11.1944 25.3763 11.1227C25.3551 11.0511 25.3114 10.9882 25.2517 10.9434C25.2313 10.9247 25.2086 10.9089 25.184 10.8963Z" fill="#4D8AF0"/>
<path opacity="0.5" d="M120.925 68.5726C120.771 68.5029 120.648 68.3795 120.579 68.2254C120.509 68.0713 120.499 67.8972 120.548 67.7357C120.556 67.7106 120.561 67.6847 120.563 67.6584C120.568 67.5838 120.549 67.5097 120.508 67.447C120.467 67.3843 120.408 67.3365 120.338 67.3107C120.268 67.2848 120.191 67.2823 120.12 67.3036C120.048 67.3248 119.985 67.3686 119.941 67.4285C119.926 67.4496 119.913 67.4723 119.903 67.4963C119.836 67.6523 119.713 67.7779 119.559 67.8492C119.405 67.9205 119.23 67.9324 119.068 67.8827C119.043 67.875 119.017 67.8699 118.991 67.8676C118.916 67.8628 118.842 67.8822 118.78 67.923C118.717 67.9637 118.67 68.0236 118.644 68.0938C118.618 68.1639 118.616 68.2405 118.637 68.3122C118.658 68.3839 118.702 68.4468 118.761 68.4915C118.782 68.5076 118.805 68.5209 118.829 68.5311C118.983 68.6007 119.106 68.7242 119.175 68.8783C119.244 69.0324 119.255 69.2065 119.205 69.368C119.198 69.3925 119.193 69.4178 119.19 69.4434C119.185 69.5181 119.204 69.5926 119.245 69.6556C119.285 69.7186 119.345 69.7667 119.415 69.7928C119.485 69.819 119.562 69.8216 119.633 69.8004C119.705 69.7792 119.768 69.7353 119.813 69.6752C119.828 69.6537 119.841 69.6302 119.851 69.6055C119.92 69.4512 120.043 69.3276 120.197 69.2582C120.351 69.1887 120.525 69.1782 120.686 69.2285C120.711 69.2362 120.737 69.2413 120.763 69.2436C120.837 69.2484 120.911 69.229 120.974 69.1882C121.036 69.1475 121.084 69.0875 121.11 69.0174C121.136 68.9473 121.138 68.8707 121.117 68.799C121.096 68.7273 121.052 68.6644 120.992 68.6197C120.972 68.601 120.949 68.5851 120.925 68.5726Z" fill="#4D8AF0"/>
<path opacity="0.5" d="M15.2152 95.3374C15.0598 95.2694 14.9347 95.1467 14.8636 94.9924C14.7925 94.8381 14.7804 94.6631 14.8296 94.5005C14.8375 94.4754 14.8426 94.4495 14.8447 94.4232C14.8495 94.3486 14.8301 94.2745 14.7894 94.2118C14.7487 94.1491 14.689 94.1013 14.619 94.0755C14.549 94.0496 14.4725 94.0471 14.401 94.0684C14.3295 94.0896 14.2667 94.1334 14.2221 94.1933C14.207 94.2144 14.1944 94.2371 14.1844 94.2611C14.117 94.4171 13.9945 94.5427 13.8405 94.614C13.6864 94.6853 13.5116 94.6972 13.3493 94.6475C13.3242 94.6398 13.2983 94.6347 13.2722 94.6324C13.1977 94.6276 13.1237 94.647 13.0612 94.6878C12.9987 94.7285 12.951 94.7884 12.9252 94.8586C12.8994 94.9287 12.8969 95.0053 12.9181 95.077C12.9392 95.1487 12.983 95.2116 13.0427 95.2563C13.0635 95.2724 13.0862 95.2857 13.1104 95.2959C13.2658 95.3638 13.3909 95.4866 13.462 95.6409C13.5331 95.7951 13.5452 95.9702 13.496 96.1328C13.4883 96.1573 13.4833 96.1826 13.481 96.2082C13.4757 96.2829 13.4948 96.3574 13.5353 96.4204C13.5758 96.4834 13.6355 96.5315 13.7056 96.5577C13.7758 96.5838 13.8524 96.5864 13.9241 96.5652C13.9959 96.544 14.0588 96.5001 14.1036 96.44C14.119 96.4185 14.1317 96.395 14.1412 96.3703C14.2103 96.216 14.3335 96.0924 14.4874 96.023C14.6413 95.9535 14.8152 95.943 14.9763 95.9933C15.0014 96.001 15.0273 96.0061 15.0534 96.0084C15.1279 96.0132 15.2019 95.9938 15.2644 95.953C15.3269 95.9123 15.3747 95.8524 15.4005 95.7822C15.4263 95.7121 15.4287 95.6355 15.4076 95.5638C15.3864 95.4921 15.3427 95.4292 15.2829 95.3845C15.2626 95.3658 15.2398 95.3499 15.2152 95.3374Z" fill="#4D8AF0"/>
<path opacity="0.5" d="M4.86986 32.949C4.71618 32.8793 4.59314 32.7559 4.52388 32.6018C4.45461 32.4477 4.44386 32.2736 4.49367 32.1121C4.50157 32.087 4.50661 32.0611 4.50872 32.0348C4.51352 31.9602 4.49414 31.8861 4.45347 31.8234C4.41281 31.7607 4.35302 31.7129 4.28303 31.6871C4.21304 31.6612 4.13659 31.6587 4.06507 31.68C3.99355 31.7012 3.93078 31.745 3.88612 31.8049C3.87106 31.826 3.85844 31.8487 3.8485 31.8727C3.78102 32.0287 3.65856 32.1543 3.50451 32.2256C3.35047 32.2969 3.17562 32.3088 3.01336 32.2591C2.98825 32.2514 2.9624 32.2463 2.93624 32.244C2.8618 32.2392 2.78781 32.2586 2.72527 32.2994C2.66274 32.3401 2.61502 32.4 2.58923 32.4702C2.56343 32.5403 2.56094 32.6169 2.58212 32.6886C2.6033 32.7603 2.64702 32.8232 2.70677 32.8679C2.72754 32.884 2.7503 32.8973 2.77448 32.9075C2.92988 32.9755 3.05499 33.0982 3.12607 33.2525C3.19714 33.4067 3.20925 33.5818 3.16008 33.7444C3.15236 33.7689 3.14731 33.7942 3.14503 33.8198C3.13977 33.8945 3.15881 33.969 3.19932 34.032C3.23982 34.095 3.29961 34.1431 3.36971 34.1692C3.43982 34.1954 3.51648 34.198 3.58821 34.1768C3.65994 34.1556 3.72289 34.1117 3.76762 34.0516C3.78308 34.0301 3.79572 34.0066 3.80524 33.9819C3.87439 33.8276 3.99755 33.704 4.15143 33.6346C4.30532 33.5651 4.47926 33.5546 4.64038 33.6049C4.66549 33.6126 4.69134 33.6177 4.7175 33.62C4.79194 33.6248 4.86594 33.6054 4.92847 33.5646C4.991 33.5239 5.03872 33.4639 5.06452 33.3938C5.09031 33.3237 5.09281 33.2471 5.07163 33.1754C5.05045 33.1037 5.00673 33.0408 4.94698 32.9961C4.92375 32.9766 4.89776 32.9607 4.86986 32.949Z" fill="#4D8AF0"/>
<path opacity="0.5" d="M119.044 1.28359C118.89 1.21397 118.767 1.09052 118.698 0.936422C118.628 0.782325 118.618 0.608188 118.667 0.446717C118.675 0.421606 118.68 0.395682 118.682 0.369438C118.687 0.294846 118.668 0.220695 118.627 0.158034C118.587 0.0953732 118.527 0.0475555 118.457 0.0217052C118.387 -0.00414513 118.31 -0.00664425 118.239 0.0145798C118.167 0.0358038 118.105 0.079615 118.06 0.139486C118.045 0.160606 118.032 0.183369 118.022 0.207341C117.953 0.361616 117.83 0.48516 117.676 0.554619C117.522 0.624079 117.348 0.634641 117.187 0.58431C117.162 0.5766 117.136 0.571546 117.11 0.569231C117.029 0.552188 116.944 0.564853 116.872 0.604926C116.799 0.644998 116.744 0.709819 116.715 0.787613C116.686 0.865408 116.686 0.951014 116.714 1.02888C116.743 1.10675 116.799 1.17171 116.871 1.21196C116.892 1.22802 116.915 1.24133 116.939 1.25155C117.093 1.32116 117.216 1.44462 117.285 1.59871C117.354 1.75281 117.365 1.92695 117.315 2.08842C117.307 2.11293 117.302 2.13821 117.3 2.16381C117.292 2.24142 117.31 2.31946 117.352 2.3853C117.394 2.45114 117.457 2.50094 117.53 2.52666C117.604 2.55237 117.684 2.5525 117.757 2.52702C117.831 2.50153 117.894 2.45193 117.936 2.38622C117.951 2.36468 117.964 2.34124 117.973 2.31648C118.043 2.16221 118.166 2.03866 118.32 1.96921C118.473 1.89975 118.647 1.88918 118.809 1.93951C118.834 1.94722 118.859 1.95228 118.886 1.95459C118.96 1.9594 119.034 1.93999 119.097 1.89923C119.159 1.85848 119.207 1.79858 119.233 1.72844C119.258 1.65831 119.261 1.5817 119.24 1.51003C119.219 1.43836 119.175 1.37546 119.115 1.33071C119.094 1.31171 119.07 1.29585 119.044 1.28359Z" fill="#4D8AF0"/>
<g opacity="0.5">
<path opacity="0.5" d="M21.2552 48.6007H20.6909V51.805H21.2552V48.6007Z" fill="#47E6B1"/>
<path opacity="0.5" d="M22.5718 50.4856V49.9202H19.3742V50.4856H22.5718Z" fill="#47E6B1"/>
</g>
<g opacity="0.5">
<path opacity="0.5" d="M156.683 33.522H156.119V36.7262H156.683V33.522Z" fill="#47E6B1"/>
<path opacity="0.5" d="M158 35.4069V34.8414H154.802V35.4069H158Z" fill="#47E6B1"/>
</g>
<g opacity="0.5">
<path opacity="0.5" d="M137.874 86.1092H137.31V89.3134H137.874V86.1092Z" fill="#47E6B1"/>
<path opacity="0.5" d="M139.19 87.994V87.4286H135.993V87.994H139.19Z" fill="#47E6B1"/>
</g>
<path opacity="0.5" d="M135.993 16.5584C136.616 16.5584 137.121 16.0521 137.121 15.4275C137.121 14.8029 136.616 14.2966 135.993 14.2966C135.37 14.2966 134.864 14.8029 134.864 15.4275C134.864 16.0521 135.37 16.5584 135.993 16.5584Z" fill="#F55F44"/>
<path opacity="0.5" d="M1.12857 3.55292C1.75186 3.55292 2.25714 3.0466 2.25714 2.42201C2.25714 1.79743 1.75186 1.29111 1.12857 1.29111C0.505279 1.29111 0 1.79743 0 2.42201C0 3.0466 0.505279 3.55292 1.12857 3.55292Z" fill="#F55F44"/>
<path opacity="0.5" d="M34.9855 68.5801C35.6088 68.5801 36.1141 68.0738 36.1141 67.4492C36.1141 66.8246 35.6088 66.3183 34.9855 66.3183C34.3622 66.3183 33.8569 66.8246 33.8569 67.4492C33.8569 68.0738 34.3622 68.5801 34.9855 68.5801Z" fill="#F55F44"/>
<path opacity="0.05" d="M44.0144 30.4271C47.5464 30.4271 50.4096 29.8364 50.4096 29.1077C50.4096 28.379 47.5464 27.7883 44.0144 27.7883C40.4824 27.7883 37.6191 28.379 37.6191 29.1077C37.6191 29.8364 40.4824 30.4271 44.0144 30.4271Z" fill="black"/>
<path opacity="0.05" d="M44.0144 40.4168C47.5464 40.4168 50.4096 39.8261 50.4096 39.0974C50.4096 38.3687 47.5464 37.778 44.0144 37.778C40.4824 37.778 37.6191 38.3687 37.6191 39.0974C37.6191 39.8261 40.4824 40.4168 44.0144 40.4168Z" fill="black"/>
<path opacity="0.05" d="M116.807 30.4271C120.339 30.4271 123.203 29.8364 123.203 29.1077C123.203 28.379 120.339 27.7883 116.807 27.7883C113.275 27.7883 110.412 28.379 110.412 29.1077C110.412 29.8364 113.275 30.4271 116.807 30.4271Z" fill="black"/>
<path opacity="0.05" d="M116.807 40.4168C120.339 40.4168 123.203 39.8261 123.203 39.0974C123.203 38.3687 120.339 37.778 116.807 37.778C113.275 37.778 110.412 38.3687 110.412 39.0974C110.412 39.8261 113.275 40.4168 116.807 40.4168Z" fill="black"/>
<path opacity="0.05" d="M81.2571 24.7725C84.7891 24.7725 87.6523 24.1818 87.6523 23.4531C87.6523 22.7244 84.7891 22.1337 81.2571 22.1337C77.7251 22.1337 74.8618 22.7244 74.8618 23.4531C74.8618 24.1818 77.7251 24.7725 81.2571 24.7725Z" fill="black"/>
<path opacity="0.05" d="M85.9597 11.0131C89.4917 11.0131 92.3549 10.4224 92.3549 9.69375C92.3549 8.96507 89.4917 8.37436 85.9597 8.37436C82.4277 8.37436 79.5645 8.96507 79.5645 9.69375C79.5645 10.4224 82.4277 11.0131 85.9597 11.0131Z" fill="black"/>
<path opacity="0.05" d="M73.7331 16.6677C77.2651 16.6677 80.1284 16.077 80.1284 15.3483C80.1284 14.6196 77.2651 14.0289 73.7331 14.0289C70.2011 14.0289 67.3379 14.6196 67.3379 15.3483C67.3379 16.077 70.2011 16.6677 73.7331 16.6677Z" fill="black"/>
<path opacity="0.05" d="M97.2453 19.118C100.777 19.118 103.641 18.5273 103.641 17.7986C103.641 17.0699 100.777 16.4792 97.2453 16.4792C93.7133 16.4792 90.8501 17.0699 90.8501 17.7986C90.8501 18.5273 93.7133 19.118 97.2453 19.118Z" fill="black"/>
<path opacity="0.05" d="M81.2571 44.375C84.7891 44.375 87.6523 43.7843 87.6523 43.0556C87.6523 42.3269 84.7891 41.7362 81.2571 41.7362C77.7251 41.7362 74.8618 42.3269 74.8618 43.0556C74.8618 43.7843 77.7251 44.375 81.2571 44.375Z" fill="black"/>
<defs>
<linearGradient id="paint0_linear" x1="81.2569" y1="46.3257" x2="81.2569" y2="3.55292" gradientUnits="userSpaceOnUse">
<stop stop-color="#808080" stop-opacity="0.25"/>
<stop offset="0.54" stop-color="#808080" stop-opacity="0.12"/>
<stop offset="1" stop-color="#808080" stop-opacity="0.1"/>
</linearGradient>
<linearGradient id="paint1_linear" x1="-8859.01" y1="64886.9" x2="-6863.16" y2="58974" gradientUnits="userSpaceOnUse">
<stop stop-color="#808080" stop-opacity="0.25"/>
<stop offset="0.54" stop-color="#808080" stop-opacity="0.12"/>
<stop offset="1" stop-color="#808080" stop-opacity="0.1"/>
</linearGradient>
<linearGradient id="paint2_linear" x1="-7704.35" y1="51820.2" x2="-5708.5" y2="45907.2" gradientUnits="userSpaceOnUse">
<stop stop-color="#808080" stop-opacity="0.25"/>
<stop offset="0.54" stop-color="#808080" stop-opacity="0.12"/>
<stop offset="1" stop-color="#808080" stop-opacity="0.1"/>
</linearGradient>
<linearGradient id="paint3_linear" x1="48159" y1="7550.84" x2="48159" y2="3033.01" gradientUnits="userSpaceOnUse">
<stop stop-color="#808080" stop-opacity="0.25"/>
<stop offset="0.54" stop-color="#808080" stop-opacity="0.12"/>
<stop offset="1" stop-color="#808080" stop-opacity="0.1"/>
</linearGradient>
</defs>
</svg>
